<svg xmlns="http://www.w3.org/2000/svg" viewBox="0 0 720 200" role="img" aria-label="Elevation profile, Galabovo to Svilengrad">
  <rect x="0" y="0" width="720" height="200" fill="#ffffff"/>
  <line x1="44" y1="168.0" x2="704" y2="168.0" stroke="#e5e7eb" stroke-width="1"/><line x1="44" y1="142.3" x2="704" y2="142.3" stroke="#e5e7eb" stroke-width="1"/><line x1="44" y1="116.7" x2="704" y2="116.7" stroke="#e5e7eb" stroke-width="1"/><line x1="44" y1="91.0" x2="704" y2="91.0" stroke="#e5e7eb" stroke-width="1"/><line x1="44" y1="65.3" x2="704" y2="65.3" stroke="#e5e7eb" stroke-width="1"/><line x1="44" y1="39.7" x2="704" y2="39.7" stroke="#e5e7eb" stroke-width="1"/><line x1="44" y1="14.0" x2="704" y2="14.0" stroke="#e5e7eb" stroke-width="1"/>
  <path d="M 44.0,143.7 L 44.1,143.7 L 44.8,143.7 L 45.4,143.7 L 45.7,143.7 L 45.7,143.7 L 45.8,143.7 L 45.9,143.7 L 46.2,143.7 L 46.9,143.7 L 48.0,143.7 L 49.1,143.6 L 49.3,143.6 L 49.5,143.5 L 49.9,143.5 L 50.1,143.4 L 50.3,143.4 L 50.4,143.4 L 51.1,143.3 L 51.9,143.4 L 53.0,143.4 L 53.7,143.4 L 54.4,143.3 L 56.1,143.2 L 56.6,143.1 L 57.0,143.1 L 59.5,143.2 L 59.6,143.2 L 59.8,143.2 L 60.0,143.3 L 60.2,143.3 L 61.2,143.4 L 61.8,143.5 L 63.4,143.8 L 64.2,143.9 L 72.3,144.9 L 75.7,145.3 L 76.1,145.3 L 76.5,145.2 L 76.8,145.1 L 77.4,145.0 L 79.4,144.2 L 79.6,144.1 L 79.9,144.0 L 80.1,143.9 L 81.8,143.2 L 81.9,143.1 L 82.7,143.0 L 84.3,142.7 L 85.3,142.5 L 85.6,142.5 L 87.0,142.7 L 87.2,142.8 L 87.3,142.8 L 87.5,142.8 L 88.0,143.4 L 88.2,143.7 L 89.4,145.3 L 89.7,145.5 L 90.1,145.7 L 91.9,146.6 L 92.8,146.7 L 93.1,146.8 L 95.8,146.3 L 96.1,146.2 L 96.3,146.1 L 97.1,145.8 L 97.5,145.7 L 100.1,145.5 L 100.8,145.6 L 101.1,145.6 L 102.0,145.9 L 102.2,146.0 L 103.4,146.3 L 104.8,146.6 L 105.1,146.5 L 105.3,146.4 L 108.3,145.1 L 113.0,145.2 L 113.5,145.3 L 113.9,145.4 L 114.2,145.5 L 115.6,145.6 L 121.1,145.4 L 146.1,145.5 L 146.7,145.5 L 147.1,145.5 L 152.3,145.6 L 152.7,145.6 L 153.0,145.6 L 153.6,145.7 L 158.0,146.8 L 160.8,147.6 L 161.3,147.7 L 163.8,147.5 L 167.6,147.7 L 168.8,147.7 L 170.4,147.3 L 170.6,147.3 L 170.7,147.2 L 171.1,146.9 L 176.6,142.0 L 177.3,142.0 L 179.5,142.2 L 185.3,143.3 L 185.8,143.2 L 186.3,143.2 L 189.8,141.0 L 190.2,140.8 L 192.6,140.7 L 193.4,140.8 L 194.2,140.9 L 198.9,139.4 L 199.4,139.3 L 199.7,139.1 L 200.0,139.1 L 201.5,139.1 L 202.1,139.2 L 202.6,139.4 L 203.0,139.5 L 203.3,139.6 L 203.6,139.6 L 204.3,139.4 L 205.4,139.0 L 205.8,138.8 L 206.4,138.4 L 206.6,138.3 L 206.9,138.1 L 207.0,138.0 L 208.2,137.2 L 208.6,136.9 L 209.3,136.5 L 209.9,136.4 L 210.2,136.4 L 210.5,136.4 L 210.8,136.5 L 211.3,136.5 L 211.5,136.5 L 212.0,136.6 L 212.5,136.6 L 213.0,136.7 L 214.2,136.3 L 215.0,136.0 L 215.5,135.8 L 216.1,135.4 L 216.6,135.1 L 219.6,132.6 L 222.4,129.0 L 223.8,127.5 L 224.4,126.9 L 224.8,126.6 L 226.7,127.0 L 226.9,127.1 L 227.4,127.2 L 227.7,127.3 L 228.3,127.4 L 228.6,127.5 L 229.4,127.3 L 230.0,127.0 L 230.2,127.0 L 230.9,126.5 L 231.4,126.1 L 231.6,126.0 L 231.7,125.8 L 232.9,124.6 L 233.7,123.6 L 234.7,122.3 L 234.8,122.1 L 235.0,121.9 L 235.2,121.7 L 235.8,120.7 L 236.0,120.5 L 236.3,120.1 L 236.6,119.7 L 236.8,119.7 L 237.4,119.4 L 237.5,119.4 L 237.7,119.3 L 238.0,119.2 L 238.2,119.1 L 238.5,119.0 L 238.9,119.4 L 239.4,119.9 L 239.7,120.1 L 240.4,120.9 L 240.6,121.1 L 240.8,121.3 L 241.7,122.5 L 242.6,123.7 L 243.3,124.8 L 243.5,125.0 L 244.0,125.8 L 244.4,126.3 L 245.0,126.9 L 245.2,127.0 L 245.2,127.1 L 245.3,127.1 L 245.4,127.2 L 245.5,127.3 L 247.1,127.6 L 247.3,127.6 L 247.9,127.4 L 248.0,127.3 L 248.2,127.1 L 248.4,126.9 L 248.6,126.7 L 248.9,126.2 L 249.3,125.5 L 249.7,125.0 L 249.9,124.6 L 250.3,124.0 L 250.5,123.7 L 250.7,123.4 L 251.2,122.4 L 252.1,120.9 L 252.2,120.7 L 252.3,120.6 L 253.5,118.8 L 253.6,118.6 L 253.7,118.5 L 253.9,118.3 L 254.6,117.7 L 255.0,117.3 L 255.2,117.2 L 255.4,117.0 L 255.8,116.7 L 257.3,115.8 L 257.5,115.7 L 258.7,114.8 L 259.9,113.8 L 260.9,112.9 L 261.3,112.6 L 261.4,112.4 L 263.2,111.1 L 263.9,110.6 L 264.4,110.2 L 264.8,109.9 L 265.0,109.8 L 265.2,109.6 L 267.4,108.0 L 267.7,107.8 L 267.9,107.7 L 268.0,107.6 L 268.1,107.5 L 269.2,106.7 L 269.9,106.3 L 271.1,105.4 L 271.4,105.2 L 271.9,104.8 L 274.3,102.9 L 275.2,102.3 L 275.4,102.1 L 276.1,101.8 L 276.4,101.6 L 277.8,100.8 L 278.4,100.5 L 278.6,100.4 L 278.8,100.3 L 279.0,100.1 L 279.8,99.5 L 280.1,99.3 L 283.2,96.4 L 283.7,95.8 L 284.0,95.6 L 284.9,94.6 L 285.1,94.4 L 285.6,93.9 L 286.1,93.4 L 286.8,92.6 L 287.1,92.5 L 287.3,92.5 L 287.9,92.3 L 288.0,92.2 L 288.2,92.2 L 288.4,92.1 L 288.8,92.0 L 291.0,92.0 L 291.1,91.9 L 291.5,91.7 L 292.7,91.1 L 293.0,90.9 L 293.3,90.7 L 293.5,90.5 L 294.3,89.9 L 294.5,89.8 L 294.6,89.7 L 295.0,89.5 L 295.3,89.3 L 296.2,88.8 L 296.6,88.6 L 296.8,88.6 L 296.9,88.7 L 297.5,88.7 L 297.7,88.7 L 298.2,88.8 L 298.7,88.9 L 298.8,89.0 L 299.0,89.0 L 299.1,89.1 L 300.4,89.7 L 300.9,89.9 L 301.3,90.2 L 301.5,90.3 L 302.1,90.7 L 303.1,91.4 L 303.3,91.5 L 303.7,91.8 L 304.1,92.1 L 304.4,92.4 L 304.7,92.7 L 305.0,93.0 L 305.8,93.9 L 306.2,94.3 L 306.4,94.7 L 306.6,94.9 L 308.3,97.4 L 309.6,99.0 L 310.5,99.9 L 311.1,100.7 L 312.7,102.7 L 313.0,103.1 L 313.8,104.0 L 314.3,104.5 L 314.7,104.9 L 316.0,106.1 L 317.5,107.3 L 317.8,107.6 L 318.0,107.7 L 318.1,107.7 L 318.3,107.8 L 318.7,108.0 L 319.3,108.3 L 319.4,108.4 L 319.6,108.5 L 324.2,109.8 L 324.4,109.8 L 324.7,109.9 L 327.1,110.9 L 327.3,111.0 L 327.5,111.1 L 328.2,111.8 L 328.3,111.9 L 328.5,112.1 L 329.1,112.7 L 329.2,112.8 L 329.4,112.9 L 329.5,113.1 L 330.0,113.7 L 330.3,114.1 L 330.6,114.5 L 330.7,114.6 L 330.8,114.7 L 331.4,115.5 L 331.7,115.7 L 332.2,116.2 L 332.9,116.9 L 333.0,117.0 L 333.1,117.1 L 333.2,117.2 L 333.3,117.3 L 333.9,117.1 L 334.1,117.0 L 335.1,116.7 L 335.3,116.6 L 335.4,116.6 L 335.5,116.5 L 335.5,116.5 L 335.7,116.4 L 335.7,116.4 L 336.7,115.9 L 336.8,115.8 L 336.9,115.8 L 337.0,115.7 L 337.0,115.7 L 337.2,115.6 L 337.5,115.4 L 337.7,115.4 L 337.8,115.2 L 338.5,114.9 L 338.6,114.8 L 339.2,114.5 L 339.8,114.4 L 339.9,114.3 L 340.0,114.3 L 340.1,114.3 L 340.2,114.3 L 340.3,114.3 L 340.4,114.2 L 340.5,114.2 L 340.9,114.1 L 341.1,114.1 L 341.2,114.1 L 341.9,114.0 L 343.1,113.9 L 343.2,114.0 L 343.6,114.0 L 344.0,114.0 L 344.6,114.1 L 344.8,114.1 L 345.4,114.0 L 345.5,113.9 L 345.6,113.9 L 345.7,113.8 L 345.9,113.8 L 346.0,113.8 L 346.1,113.7 L 346.7,113.5 L 347.0,113.4 L 347.3,113.4 L 347.4,113.3 L 347.6,113.3 L 348.4,113.1 L 348.7,113.1 L 350.8,115.3 L 351.4,115.9 L 352.7,117.4 L 353.0,117.8 L 353.5,118.3 L 356.8,121.7 L 357.0,121.8 L 357.1,121.8 L 357.2,121.9 L 357.3,121.9 L 357.5,122.0 L 357.9,122.2 L 358.2,122.4 L 358.7,122.3 L 358.8,122.2 L 359.0,122.0 L 360.0,121.1 L 360.2,120.9 L 360.3,120.8 L 360.4,120.7 L 360.6,120.6 L 360.7,120.4 L 360.8,120.3 L 361.0,120.1 L 361.6,119.3 L 361.7,119.1 L 361.9,119.0 L 362.7,118.0 L 362.9,117.8 L 363.8,116.7 L 364.0,116.5 L 364.4,116.0 L 364.6,115.9 L 366.1,114.4 L 366.5,114.3 L 367.1,114.2 L 369.8,114.5 L 370.1,114.6 L 370.3,114.8 L 372.3,116.4 L 372.6,116.7 L 372.8,116.8 L 373.8,117.6 L 374.2,117.9 L 374.4,118.1 L 375.7,119.1 L 377.3,120.7 L 377.6,121.0 L 378.3,121.9 L 378.6,122.4 L 380.0,124.1 L 380.1,124.2 L 380.2,124.2 L 380.3,124.3 L 380.4,124.3 L 380.5,124.4 L 381.1,124.7 L 382.1,124.5 L 382.5,124.0 L 382.8,123.6 L 384.2,121.8 L 384.3,121.7 L 384.4,121.5 L 386.1,119.6 L 387.0,118.9 L 387.3,118.6 L 388.3,118.3 L 389.7,117.9 L 390.0,117.8 L 390.4,117.8 L 391.8,117.5 L 392.3,117.4 L 392.4,117.3 L 393.0,117.2 L 394.1,116.9 L 395.1,116.6 L 395.4,116.4 L 395.6,116.3 L 395.7,116.2 L 396.9,115.3 L 397.3,114.9 L 398.6,113.9 L 399.3,113.5 L 399.5,113.4 L 399.6,113.4 L 400.1,113.2 L 400.4,113.2 L 401.9,113.0 L 403.7,112.9 L 406.3,112.3 L 406.8,112.2 L 407.9,112.7 L 409.0,113.3 L 411.4,115.0 L 411.7,115.2 L 411.8,115.2 L 411.9,115.3 L 412.6,115.5 L 412.8,115.4 L 412.9,115.4 L 413.0,115.3 L 415.5,113.7 L 415.9,113.4 L 416.1,113.2 L 417.5,113.1 L 417.7,113.1 L 418.2,113.1 L 418.4,113.1 L 418.6,113.3 L 418.8,113.5 L 419.8,114.2 L 422.4,115.6 L 423.9,116.0 L 424.6,116.2 L 425.1,116.3 L 425.7,116.5 L 428.2,116.9 L 428.5,116.8 L 429.5,116.5 L 429.7,116.5 L 431.4,115.6 L 431.6,115.6 L 431.7,115.5 L 432.8,114.7 L 432.9,114.6 L 433.0,114.5 L 433.9,113.8 L 434.3,113.5 L 435.1,112.8 L 438.3,110.5 L 438.9,110.4 L 439.9,110.4 L 443.0,111.3 L 443.5,111.4 L 445.9,111.0 L 446.4,111.1 L 446.8,111.2 L 449.3,112.1 L 449.8,112.3 L 450.0,112.4 L 450.3,112.4 L 451.0,112.6 L 452.4,113.0 L 452.7,113.0 L 452.9,113.1 L 454.9,114.9 L 455.2,115.2 L 455.3,115.4 L 456.0,116.2 L 456.1,116.4 L 456.4,116.7 L 456.6,116.9 L 457.7,117.5 L 457.8,117.5 L 458.0,117.4 L 458.2,117.4 L 458.4,117.3 L 458.7,117.3 L 458.9,117.2 L 459.1,117.2 L 459.5,116.7 L 459.6,116.5 L 459.8,116.4 L 460.5,115.7 L 460.8,115.3 L 461.8,114.1 L 462.1,113.7 L 462.2,113.6 L 462.4,113.4 L 462.6,113.1 L 463.9,111.5 L 464.2,111.2 L 464.3,111.1 L 464.6,110.8 L 466.2,109.9 L 468.0,109.7 L 468.2,109.7 L 468.5,109.8 L 468.6,109.8 L 471.9,110.4 L 472.1,110.4 L 472.2,110.4 L 472.4,110.4 L 472.8,110.2 L 474.2,108.4 L 474.4,108.2 L 474.7,107.7 L 475.7,106.5 L 478.0,104.2 L 479.7,104.0 L 480.6,104.2 L 483.9,104.7 L 484.2,104.7 L 485.7,104.2 L 485.9,104.1 L 487.6,103.8 L 487.7,103.8 L 488.3,103.7 L 488.8,103.8 L 489.1,103.8 L 490.6,103.8 L 490.7,103.7 L 490.7,103.7 L 491.2,103.7 L 491.6,103.6 L 492.0,103.6 L 492.2,103.7 L 492.5,103.7 L 492.9,103.8 L 493.1,103.8 L 493.8,103.9 L 494.0,104.0 L 494.4,104.2 L 495.5,104.8 L 495.8,105.0 L 496.2,105.1 L 496.5,105.2 L 496.6,105.2 L 497.5,105.4 L 497.8,105.5 L 498.4,105.8 L 498.6,105.8 L 499.6,106.2 L 499.9,106.4 L 500.4,106.9 L 500.9,107.5 L 501.1,107.8 L 501.3,108.0 L 501.5,108.2 L 501.6,108.4 L 501.9,108.7 L 502.0,109.0 L 502.1,109.2 L 502.3,109.5 L 502.5,109.9 L 502.6,110.1 L 503.1,110.9 L 503.5,111.6 L 503.8,111.9 L 503.9,112.0 L 504.1,112.1 L 504.2,112.2 L 504.4,112.3 L 504.4,112.3 L 504.8,112.6 L 505.2,112.9 L 505.3,113.0 L 505.5,113.1 L 506.3,113.5 L 506.7,113.7 L 506.8,113.8 L 507.1,114.0 L 507.2,114.0 L 507.4,114.1 L 507.5,114.2 L 507.6,114.3 L 508.3,114.7 L 508.7,115.0 L 508.9,115.1 L 509.1,115.2 L 509.5,115.5 L 511.7,116.8 L 513.1,117.4 L 514.4,117.8 L 515.3,118.1 L 516.6,118.4 L 517.3,118.6 L 518.7,118.6 L 519.7,118.5 L 520.7,118.3 L 522.1,117.6 L 522.7,117.3 L 524.0,116.4 L 524.6,116.0 L 525.1,115.9 L 526.0,116.2 L 527.2,116.9 L 529.1,119.1 L 529.6,119.5 L 530.2,120.0 L 531.0,120.5 L 531.4,120.6 L 532.4,120.8 L 533.3,121.0 L 534.1,121.2 L 535.9,121.8 L 537.2,122.0 L 538.3,122.1 L 539.7,122.7 L 540.4,123.0 L 541.5,123.6 L 542.1,123.9 L 543.1,124.2 L 543.8,124.3 L 544.1,124.3 L 544.3,124.4 L 544.7,124.5 L 544.9,124.6 L 545.1,124.7 L 545.6,124.9 L 546.2,125.2 L 546.5,125.4 L 546.7,125.5 L 547.5,125.9 L 547.8,126.1 L 548.1,126.3 L 548.5,126.5 L 550.5,127.8 L 551.3,128.6 L 551.6,128.8 L 552.4,129.1 L 552.5,129.1 L 552.8,129.1 L 553.4,129.1 L 553.9,129.1 L 554.2,129.1 L 554.5,129.1 L 555.2,129.1 L 556.0,129.1 L 556.4,129.2 L 556.9,129.3 L 557.5,129.4 L 557.7,129.4 L 558.1,129.7 L 558.9,130.5 L 559.2,130.8 L 559.8,131.3 L 560.4,131.9 L 561.4,132.9 L 562.9,134.4 L 563.7,135.1 L 564.9,136.3 L 565.6,137.0 L 566.1,137.4 L 566.6,137.9 L 567.1,138.4 L 567.6,138.8 L 568.6,139.5 L 569.5,140.1 L 569.6,140.2 L 569.9,140.6 L 571.3,142.0 L 572.7,143.5 L 573.1,143.9 L 573.5,144.2 L 573.9,144.5 L 574.6,144.9 L 575.0,145.1 L 575.4,145.4 L 575.8,145.7 L 576.0,145.9 L 576.2,146.1 L 576.6,146.4 L 576.9,146.6 L 577.0,146.7 L 577.2,146.8 L 577.7,147.1 L 578.5,147.5 L 578.6,147.6 L 578.8,147.7 L 579.3,147.7 L 580.0,147.6 L 580.2,147.5 L 581.3,147.4 L 581.9,147.6 L 582.4,147.8 L 582.6,147.9 L 583.6,148.2 L 584.0,148.3 L 585.0,148.5 L 585.5,148.5 L 585.9,148.5 L 589.5,148.9 L 589.8,148.9 L 590.3,149.0 L 590.7,149.0 L 590.9,149.1 L 591.1,149.3 L 591.7,149.6 L 592.0,149.8 L 592.2,149.9 L 592.4,150.0 L 592.8,150.2 L 593.1,150.3 L 593.5,150.4 L 593.9,150.5 L 600.4,151.2 L 600.7,151.3 L 601.1,151.3 L 602.7,151.7 L 607.0,152.6 L 607.9,152.7 L 608.5,152.7 L 617.3,152.7 L 617.9,152.6 L 618.3,152.5 L 619.2,152.2 L 620.8,152.0 L 622.3,152.0 L 623.4,152.1 L 624.1,152.2 L 628.6,152.9 L 629.9,152.9 L 631.7,152.8 L 632.1,152.8 L 634.6,152.7 L 636.8,152.9 L 637.4,153.0 L 639.3,153.3 L 642.2,153.3 L 645.2,153.8 L 647.8,154.1 L 649.1,154.2 L 649.4,154.2 L 650.3,154.2 L 650.7,154.2 L 652.0,154.3 L 652.5,154.3 L 652.7,154.3 L 653.6,154.3 L 654.2,154.3 L 655.3,154.4 L 655.9,154.4 L 657.6,154.2 L 657.7,154.2 L 658.3,154.1 L 658.5,154.1 L 659.2,153.9 L 659.5,153.9 L 659.7,153.9 L 660.5,153.7 L 661.4,153.8 L 661.7,153.8 L 663.3,153.9 L 664.9,153.9 L 665.3,154.0 L 665.7,154.0 L 667.8,153.9 L 668.3,153.9 L 669.0,153.9 L 669.1,153.8 L 669.3,153.8 L 669.8,153.8 L 670.2,153.8 L 670.4,153.9 L 670.7,153.9 L 670.9,153.9 L 671.1,154.0 L 671.4,154.0 L 671.6,154.0 L 671.8,154.1 L 671.9,154.1 L 672.7,154.0 L 673.6,153.8 L 674.0,153.8 L 674.3,153.8 L 674.7,153.8 L 674.9,153.8 L 674.9,153.8 L 675.3,153.8 L 675.7,153.9 L 676.3,153.9 L 676.5,153.9 L 676.6,153.9 L 677.1,154.0 L 678.0,154.1 L 678.2,154.1 L 678.5,154.1 L 678.7,154.1 L 678.9,154.1 L 679.0,154.1 L 679.4,154.1 L 679.4,168.0 L 44.0,168.0 Z" fill="#d97706" fill-opacity="0.15"/>
  <path d="M 44.0,143.7 L 44.1,143.7 L 44.8,143.7 L 45.4,143.7 L 45.7,143.7 L 45.7,143.7 L 45.8,143.7 L 45.9,143.7 L 46.2,143.7 L 46.9,143.7 L 48.0,143.7 L 49.1,143.6 L 49.3,143.6 L 49.5,143.5 L 49.9,143.5 L 50.1,143.4 L 50.3,143.4 L 50.4,143.4 L 51.1,143.3 L 51.9,143.4 L 53.0,143.4 L 53.7,143.4 L 54.4,143.3 L 56.1,143.2 L 56.6,143.1 L 57.0,143.1 L 59.5,143.2 L 59.6,143.2 L 59.8,143.2 L 60.0,143.3 L 60.2,143.3 L 61.2,143.4 L 61.8,143.5 L 63.4,143.8 L 64.2,143.9 L 72.3,144.9 L 75.7,145.3 L 76.1,145.3 L 76.5,145.2 L 76.8,145.1 L 77.4,145.0 L 79.4,144.2 L 79.6,144.1 L 79.9,144.0 L 80.1,143.9 L 81.8,143.2 L 81.9,143.1 L 82.7,143.0 L 84.3,142.7 L 85.3,142.5 L 85.6,142.5 L 87.0,142.7 L 87.2,142.8 L 87.3,142.8 L 87.5,142.8 L 88.0,143.4 L 88.2,143.7 L 89.4,145.3 L 89.7,145.5 L 90.1,145.7 L 91.9,146.6 L 92.8,146.7 L 93.1,146.8 L 95.8,146.3 L 96.1,146.2 L 96.3,146.1 L 97.1,145.8 L 97.5,145.7 L 100.1,145.5 L 100.8,145.6 L 101.1,145.6 L 102.0,145.9 L 102.2,146.0 L 103.4,146.3 L 104.8,146.6 L 105.1,146.5 L 105.3,146.4 L 108.3,145.1 L 113.0,145.2 L 113.5,145.3 L 113.9,145.4 L 114.2,145.5 L 115.6,145.6 L 121.1,145.4 L 146.1,145.5 L 146.7,145.5 L 147.1,145.5 L 152.3,145.6 L 152.7,145.6 L 153.0,145.6 L 153.6,145.7 L 158.0,146.8 L 160.8,147.6 L 161.3,147.7 L 163.8,147.5 L 167.6,147.7 L 168.8,147.7 L 170.4,147.3 L 170.6,147.3 L 170.7,147.2 L 171.1,146.9 L 176.6,142.0 L 177.3,142.0 L 179.5,142.2 L 185.3,143.3 L 185.8,143.2 L 186.3,143.2 L 189.8,141.0 L 190.2,140.8 L 192.6,140.7 L 193.4,140.8 L 194.2,140.9 L 198.9,139.4 L 199.4,139.3 L 199.7,139.1 L 200.0,139.1 L 201.5,139.1 L 202.1,139.2 L 202.6,139.4 L 203.0,139.5 L 203.3,139.6 L 203.6,139.6 L 204.3,139.4 L 205.4,139.0 L 205.8,138.8 L 206.4,138.4 L 206.6,138.3 L 206.9,138.1 L 207.0,138.0 L 208.2,137.2 L 208.6,136.9 L 209.3,136.5 L 209.9,136.4 L 210.2,136.4 L 210.5,136.4 L 210.8,136.5 L 211.3,136.5 L 211.5,136.5 L 212.0,136.6 L 212.5,136.6 L 213.0,136.7 L 214.2,136.3 L 215.0,136.0 L 215.5,135.8 L 216.1,135.4 L 216.6,135.1 L 219.6,132.6 L 222.4,129.0 L 223.8,127.5 L 224.4,126.9 L 224.8,126.6 L 226.7,127.0 L 226.9,127.1 L 227.4,127.2 L 227.7,127.3 L 228.3,127.4 L 228.6,127.5 L 229.4,127.3 L 230.0,127.0 L 230.2,127.0 L 230.9,126.5 L 231.4,126.1 L 231.6,126.0 L 231.7,125.8 L 232.9,124.6 L 233.7,123.6 L 234.7,122.3 L 234.8,122.1 L 235.0,121.9 L 235.2,121.7 L 235.8,120.7 L 236.0,120.5 L 236.3,120.1 L 236.6,119.7 L 236.8,119.7 L 237.4,119.4 L 237.5,119.4 L 237.7,119.3 L 238.0,119.2 L 238.2,119.1 L 238.5,119.0 L 238.9,119.4 L 239.4,119.9 L 239.7,120.1 L 240.4,120.9 L 240.6,121.1 L 240.8,121.3 L 241.7,122.5 L 242.6,123.7 L 243.3,124.8 L 243.5,125.0 L 244.0,125.8 L 244.4,126.3 L 245.0,126.9 L 245.2,127.0 L 245.2,127.1 L 245.3,127.1 L 245.4,127.2 L 245.5,127.3 L 247.1,127.6 L 247.3,127.6 L 247.9,127.4 L 248.0,127.3 L 248.2,127.1 L 248.4,126.9 L 248.6,126.7 L 248.9,126.2 L 249.3,125.5 L 249.7,125.0 L 249.9,124.6 L 250.3,124.0 L 250.5,123.7 L 250.7,123.4 L 251.2,122.4 L 252.1,120.9 L 252.2,120.7 L 252.3,120.6 L 253.5,118.8 L 253.6,118.6 L 253.7,118.5 L 253.9,118.3 L 254.6,117.7 L 255.0,117.3 L 255.2,117.2 L 255.4,117.0 L 255.8,116.7 L 257.3,115.8 L 257.5,115.7 L 258.7,114.8 L 259.9,113.8 L 260.9,112.9 L 261.3,112.6 L 261.4,112.4 L 263.2,111.1 L 263.9,110.6 L 264.4,110.2 L 264.8,109.9 L 265.0,109.8 L 265.2,109.6 L 267.4,108.0 L 267.7,107.8 L 267.9,107.7 L 268.0,107.6 L 268.1,107.5 L 269.2,106.7 L 269.9,106.3 L 271.1,105.4 L 271.4,105.2 L 271.9,104.8 L 274.3,102.9 L 275.2,102.3 L 275.4,102.1 L 276.1,101.8 L 276.4,101.6 L 277.8,100.8 L 278.4,100.5 L 278.6,100.4 L 278.8,100.3 L 279.0,100.1 L 279.8,99.5 L 280.1,99.3 L 283.2,96.4 L 283.7,95.8 L 284.0,95.6 L 284.9,94.6 L 285.1,94.4 L 285.6,93.9 L 286.1,93.4 L 286.8,92.6 L 287.1,92.5 L 287.3,92.5 L 287.9,92.3 L 288.0,92.2 L 288.2,92.2 L 288.4,92.1 L 288.8,92.0 L 291.0,92.0 L 291.1,91.9 L 291.5,91.7 L 292.7,91.1 L 293.0,90.9 L 293.3,90.7 L 293.5,90.5 L 294.3,89.9 L 294.5,89.8 L 294.6,89.7 L 295.0,89.5 L 295.3,89.3 L 296.2,88.8 L 296.6,88.6 L 296.8,88.6 L 296.9,88.7 L 297.5,88.7 L 297.7,88.7 L 298.2,88.8 L 298.7,88.9 L 298.8,89.0 L 299.0,89.0 L 299.1,89.1 L 300.4,89.7 L 300.9,89.9 L 301.3,90.2 L 301.5,90.3 L 302.1,90.7 L 303.1,91.4 L 303.3,91.5 L 303.7,91.8 L 304.1,92.1 L 304.4,92.4 L 304.7,92.7 L 305.0,93.0 L 305.8,93.9 L 306.2,94.3 L 306.4,94.7 L 306.6,94.9 L 308.3,97.4 L 309.6,99.0 L 310.5,99.9 L 311.1,100.7 L 312.7,102.7 L 313.0,103.1 L 313.8,104.0 L 314.3,104.5 L 314.7,104.9 L 316.0,106.1 L 317.5,107.3 L 317.8,107.6 L 318.0,107.7 L 318.1,107.7 L 318.3,107.8 L 318.7,108.0 L 319.3,108.3 L 319.4,108.4 L 319.6,108.5 L 324.2,109.8 L 324.4,109.8 L 324.7,109.9 L 327.1,110.9 L 327.3,111.0 L 327.5,111.1 L 328.2,111.8 L 328.3,111.9 L 328.5,112.1 L 329.1,112.7 L 329.2,112.8 L 329.4,112.9 L 329.5,113.1 L 330.0,113.7 L 330.3,114.1 L 330.6,114.5 L 330.7,114.6 L 330.8,114.7 L 331.4,115.5 L 331.7,115.7 L 332.2,116.2 L 332.9,116.9 L 333.0,117.0 L 333.1,117.1 L 333.2,117.2 L 333.3,117.3 L 333.9,117.1 L 334.1,117.0 L 335.1,116.7 L 335.3,116.6 L 335.4,116.6 L 335.5,116.5 L 335.5,116.5 L 335.7,116.4 L 335.7,116.4 L 336.7,115.9 L 336.8,115.8 L 336.9,115.8 L 337.0,115.7 L 337.0,115.7 L 337.2,115.6 L 337.5,115.4 L 337.7,115.4 L 337.8,115.2 L 338.5,114.9 L 338.6,114.8 L 339.2,114.5 L 339.8,114.4 L 339.9,114.3 L 340.0,114.3 L 340.1,114.3 L 340.2,114.3 L 340.3,114.3 L 340.4,114.2 L 340.5,114.2 L 340.9,114.1 L 341.1,114.1 L 341.2,114.1 L 341.9,114.0 L 343.1,113.9 L 343.2,114.0 L 343.6,114.0 L 344.0,114.0 L 344.6,114.1 L 344.8,114.1 L 345.4,114.0 L 345.5,113.9 L 345.6,113.9 L 345.7,113.8 L 345.9,113.8 L 346.0,113.8 L 346.1,113.7 L 346.7,113.5 L 347.0,113.4 L 347.3,113.4 L 347.4,113.3 L 347.6,113.3 L 348.4,113.1 L 348.7,113.1 L 350.8,115.3 L 351.4,115.9 L 352.7,117.4 L 353.0,117.8 L 353.5,118.3 L 356.8,121.7 L 357.0,121.8 L 357.1,121.8 L 357.2,121.9 L 357.3,121.9 L 357.5,122.0 L 357.9,122.2 L 358.2,122.4 L 358.7,122.3 L 358.8,122.2 L 359.0,122.0 L 360.0,121.1 L 360.2,120.9 L 360.3,120.8 L 360.4,120.7 L 360.6,120.6 L 360.7,120.4 L 360.8,120.3 L 361.0,120.1 L 361.6,119.3 L 361.7,119.1 L 361.9,119.0 L 362.7,118.0 L 362.9,117.8 L 363.8,116.7 L 364.0,116.5 L 364.4,116.0 L 364.6,115.9 L 366.1,114.4 L 366.5,114.3 L 367.1,114.2 L 369.8,114.5 L 370.1,114.6 L 370.3,114.8 L 372.3,116.4 L 372.6,116.7 L 372.8,116.8 L 373.8,117.6 L 374.2,117.9 L 374.4,118.1 L 375.7,119.1 L 377.3,120.7 L 377.6,121.0 L 378.3,121.9 L 378.6,122.4 L 380.0,124.1 L 380.1,124.2 L 380.2,124.2 L 380.3,124.3 L 380.4,124.3 L 380.5,124.4 L 381.1,124.7 L 382.1,124.5 L 382.5,124.0 L 382.8,123.6 L 384.2,121.8 L 384.3,121.7 L 384.4,121.5 L 386.1,119.6 L 387.0,118.9 L 387.3,118.6 L 388.3,118.3 L 389.7,117.9 L 390.0,117.8 L 390.4,117.8 L 391.8,117.5 L 392.3,117.4 L 392.4,117.3 L 393.0,117.2 L 394.1,116.9 L 395.1,116.6 L 395.4,116.4 L 395.6,116.3 L 395.7,116.2 L 396.9,115.3 L 397.3,114.9 L 398.6,113.9 L 399.3,113.5 L 399.5,113.4 L 399.6,113.4 L 400.1,113.2 L 400.4,113.2 L 401.9,113.0 L 403.7,112.9 L 406.3,112.3 L 406.8,112.2 L 407.9,112.7 L 409.0,113.3 L 411.4,115.0 L 411.7,115.2 L 411.8,115.2 L 411.9,115.3 L 412.6,115.5 L 412.8,115.4 L 412.9,115.4 L 413.0,115.3 L 415.5,113.7 L 415.9,113.4 L 416.1,113.2 L 417.5,113.1 L 417.7,113.1 L 418.2,113.1 L 418.4,113.1 L 418.6,113.3 L 418.8,113.5 L 419.8,114.2 L 422.4,115.6 L 423.9,116.0 L 424.6,116.2 L 425.1,116.3 L 425.7,116.5 L 428.2,116.9 L 428.5,116.8 L 429.5,116.5 L 429.7,116.5 L 431.4,115.6 L 431.6,115.6 L 431.7,115.5 L 432.8,114.7 L 432.9,114.6 L 433.0,114.5 L 433.9,113.8 L 434.3,113.5 L 435.1,112.8 L 438.3,110.5 L 438.9,110.4 L 439.9,110.4 L 443.0,111.3 L 443.5,111.4 L 445.9,111.0 L 446.4,111.1 L 446.8,111.2 L 449.3,112.1 L 449.8,112.3 L 450.0,112.4 L 450.3,112.4 L 451.0,112.6 L 452.4,113.0 L 452.7,113.0 L 452.9,113.1 L 454.9,114.9 L 455.2,115.2 L 455.3,115.4 L 456.0,116.2 L 456.1,116.4 L 456.4,116.7 L 456.6,116.9 L 457.7,117.5 L 457.8,117.5 L 458.0,117.4 L 458.2,117.4 L 458.4,117.3 L 458.7,117.3 L 458.9,117.2 L 459.1,117.2 L 459.5,116.7 L 459.6,116.5 L 459.8,116.4 L 460.5,115.7 L 460.8,115.3 L 461.8,114.1 L 462.1,113.7 L 462.2,113.6 L 462.4,113.4 L 462.6,113.1 L 463.9,111.5 L 464.2,111.2 L 464.3,111.1 L 464.6,110.8 L 466.2,109.9 L 468.0,109.7 L 468.2,109.7 L 468.5,109.8 L 468.6,109.8 L 471.9,110.4 L 472.1,110.4 L 472.2,110.4 L 472.4,110.4 L 472.8,110.2 L 474.2,108.4 L 474.4,108.2 L 474.7,107.7 L 475.7,106.5 L 478.0,104.2 L 479.7,104.0 L 480.6,104.2 L 483.9,104.7 L 484.2,104.7 L 485.7,104.2 L 485.9,104.1 L 487.6,103.8 L 487.7,103.8 L 488.3,103.7 L 488.8,103.8 L 489.1,103.8 L 490.6,103.8 L 490.7,103.7 L 490.7,103.7 L 491.2,103.7 L 491.6,103.6 L 492.0,103.6 L 492.2,103.7 L 492.5,103.7 L 492.9,103.8 L 493.1,103.8 L 493.8,103.9 L 494.0,104.0 L 494.4,104.2 L 495.5,104.8 L 495.8,105.0 L 496.2,105.1 L 496.5,105.2 L 496.6,105.2 L 497.5,105.4 L 497.8,105.5 L 498.4,105.8 L 498.6,105.8 L 499.6,106.2 L 499.9,106.4 L 500.4,106.9 L 500.9,107.5 L 501.1,107.8 L 501.3,108.0 L 501.5,108.2 L 501.6,108.4 L 501.9,108.7 L 502.0,109.0 L 502.1,109.2 L 502.3,109.5 L 502.5,109.9 L 502.6,110.1 L 503.1,110.9 L 503.5,111.6 L 503.8,111.9 L 503.9,112.0 L 504.1,112.1 L 504.2,112.2 L 504.4,112.3 L 504.4,112.3 L 504.8,112.6 L 505.2,112.9 L 505.3,113.0 L 505.5,113.1 L 506.3,113.5 L 506.7,113.7 L 506.8,113.8 L 507.1,114.0 L 507.2,114.0 L 507.4,114.1 L 507.5,114.2 L 507.6,114.3 L 508.3,114.7 L 508.7,115.0 L 508.9,115.1 L 509.1,115.2 L 509.5,115.5 L 511.7,116.8 L 513.1,117.4 L 514.4,117.8 L 515.3,118.1 L 516.6,118.4 L 517.3,118.6 L 518.7,118.6 L 519.7,118.5 L 520.7,118.3 L 522.1,117.6 L 522.7,117.3 L 524.0,116.4 L 524.6,116.0 L 525.1,115.9 L 526.0,116.2 L 527.2,116.9 L 529.1,119.1 L 529.6,119.5 L 530.2,120.0 L 531.0,120.5 L 531.4,120.6 L 532.4,120.8 L 533.3,121.0 L 534.1,121.2 L 535.9,121.8 L 537.2,122.0 L 538.3,122.1 L 539.7,122.7 L 540.4,123.0 L 541.5,123.6 L 542.1,123.9 L 543.1,124.2 L 543.8,124.3 L 544.1,124.3 L 544.3,124.4 L 544.7,124.5 L 544.9,124.6 L 545.1,124.7 L 545.6,124.9 L 546.2,125.2 L 546.5,125.4 L 546.7,125.5 L 547.5,125.9 L 547.8,126.1 L 548.1,126.3 L 548.5,126.5 L 550.5,127.8 L 551.3,128.6 L 551.6,128.8 L 552.4,129.1 L 552.5,129.1 L 552.8,129.1 L 553.4,129.1 L 553.9,129.1 L 554.2,129.1 L 554.5,129.1 L 555.2,129.1 L 556.0,129.1 L 556.4,129.2 L 556.9,129.3 L 557.5,129.4 L 557.7,129.4 L 558.1,129.7 L 558.9,130.5 L 559.2,130.8 L 559.8,131.3 L 560.4,131.9 L 561.4,132.9 L 562.9,134.4 L 563.7,135.1 L 564.9,136.3 L 565.6,137.0 L 566.1,137.4 L 566.6,137.9 L 567.1,138.4 L 567.6,138.8 L 568.6,139.5 L 569.5,140.1 L 569.6,140.2 L 569.9,140.6 L 571.3,142.0 L 572.7,143.5 L 573.1,143.9 L 573.5,144.2 L 573.9,144.5 L 574.6,144.9 L 575.0,145.1 L 575.4,145.4 L 575.8,145.7 L 576.0,145.9 L 576.2,146.1 L 576.6,146.4 L 576.9,146.6 L 577.0,146.7 L 577.2,146.8 L 577.7,147.1 L 578.5,147.5 L 578.6,147.6 L 578.8,147.7 L 579.3,147.7 L 580.0,147.6 L 580.2,147.5 L 581.3,147.4 L 581.9,147.6 L 582.4,147.8 L 582.6,147.9 L 583.6,148.2 L 584.0,148.3 L 585.0,148.5 L 585.5,148.5 L 585.9,148.5 L 589.5,148.9 L 589.8,148.9 L 590.3,149.0 L 590.7,149.0 L 590.9,149.1 L 591.1,149.3 L 591.7,149.6 L 592.0,149.8 L 592.2,149.9 L 592.4,150.0 L 592.8,150.2 L 593.1,150.3 L 593.5,150.4 L 593.9,150.5 L 600.4,151.2 L 600.7,151.3 L 601.1,151.3 L 602.7,151.7 L 607.0,152.6 L 607.9,152.7 L 608.5,152.7 L 617.3,152.7 L 617.9,152.6 L 618.3,152.5 L 619.2,152.2 L 620.8,152.0 L 622.3,152.0 L 623.4,152.1 L 624.1,152.2 L 628.6,152.9 L 629.9,152.9 L 631.7,152.8 L 632.1,152.8 L 634.6,152.7 L 636.8,152.9 L 637.4,153.0 L 639.3,153.3 L 642.2,153.3 L 645.2,153.8 L 647.8,154.1 L 649.1,154.2 L 649.4,154.2 L 650.3,154.2 L 650.7,154.2 L 652.0,154.3 L 652.5,154.3 L 652.7,154.3 L 653.6,154.3 L 654.2,154.3 L 655.3,154.4 L 655.9,154.4 L 657.6,154.2 L 657.7,154.2 L 658.3,154.1 L 658.5,154.1 L 659.2,153.9 L 659.5,153.9 L 659.7,153.9 L 660.5,153.7 L 661.4,153.8 L 661.7,153.8 L 663.3,153.9 L 664.9,153.9 L 665.3,154.0 L 665.7,154.0 L 667.8,153.9 L 668.3,153.9 L 669.0,153.9 L 669.1,153.8 L 669.3,153.8 L 669.8,153.8 L 670.2,153.8 L 670.4,153.9 L 670.7,153.9 L 670.9,153.9 L 671.1,154.0 L 671.4,154.0 L 671.6,154.0 L 671.8,154.1 L 671.9,154.1 L 672.7,154.0 L 673.6,153.8 L 674.0,153.8 L 674.3,153.8 L 674.7,153.8 L 674.9,153.8 L 674.9,153.8 L 675.3,153.8 L 675.7,153.9 L 676.3,153.9 L 676.5,153.9 L 676.6,153.9 L 677.1,154.0 L 678.0,154.1 L 678.2,154.1 L 678.5,154.1 L 678.7,154.1 L 678.9,154.1 L 679.0,154.1 L 679.4,154.1" fill="none" stroke="#d97706" stroke-width="2"/>
  <line x1="44" y1="168" x2="704" y2="168" stroke="#9ca3af" stroke-width="1"/>
  <text x="38" y="172.0" text-anchor="end" font-size="11" fill="#6b7280">0</text><text x="38" y="146.3" text-anchor="end" font-size="11" fill="#6b7280">100</text><text x="38" y="120.7" text-anchor="end" font-size="11" fill="#6b7280">200</text><text x="38" y="95.0" text-anchor="end" font-size="11" fill="#6b7280">300</text><text x="38" y="69.3" text-anchor="end" font-size="11" fill="#6b7280">400</text><text x="38" y="43.7" text-anchor="end" font-size="11" fill="#6b7280">500</text><text x="38" y="18.0" text-anchor="end" font-size="11" fill="#6b7280">600</text>
  <text x="140.8" y="188" text-anchor="middle" font-size="11" fill="#6b7280">10</text><text x="237.5" y="188" text-anchor="middle" font-size="11" fill="#6b7280">20</text><text x="334.3" y="188" text-anchor="middle" font-size="11" fill="#6b7280">30</text><text x="431.0" y="188" text-anchor="middle" font-size="11" fill="#6b7280">40</text><text x="527.8" y="188" text-anchor="middle" font-size="11" fill="#6b7280">50</text>
  <text x="44" y="188" text-anchor="start" font-size="11" fill="#374151" font-weight="600">Galabovo</text><text x="679.4" y="188" text-anchor="end" font-size="11" fill="#374151" font-weight="600">Svilengrad</text><text x="704" y="198" text-anchor="end" font-size="10" fill="#9ca3af">km</text><text x="6" y="24" text-anchor="start" font-size="10" fill="#9ca3af">m</text>
</svg>