<svg xmlns="http://www.w3.org/2000/svg" viewBox="0 0 720 200" role="img" aria-label="Elevation profile, Srem to Galabovo">
  <rect x="0" y="0" width="720" height="200" fill="#ffffff"/>
  <line x1="44" y1="168.0" x2="704" y2="168.0" stroke="#e5e7eb" stroke-width="1"/><line x1="44" y1="142.3" x2="704" y2="142.3" stroke="#e5e7eb" stroke-width="1"/><line x1="44" y1="116.7" x2="704" y2="116.7" stroke="#e5e7eb" stroke-width="1"/><line x1="44" y1="91.0" x2="704" y2="91.0" stroke="#e5e7eb" stroke-width="1"/><line x1="44" y1="65.3" x2="704" y2="65.3" stroke="#e5e7eb" stroke-width="1"/><line x1="44" y1="39.7" x2="704" y2="39.7" stroke="#e5e7eb" stroke-width="1"/><line x1="44" y1="14.0" x2="704" y2="14.0" stroke="#e5e7eb" stroke-width="1"/>
  <path d="M 44.0,144.5 L 44.3,144.5 L 44.8,144.5 L 45.0,144.5 L 45.6,144.9 L 45.7,145.0 L 45.8,145.1 L 46.1,145.3 L 46.3,145.5 L 46.6,145.7 L 48.5,146.0 L 49.1,146.0 L 50.2,146.2 L 50.4,146.2 L 51.0,146.3 L 53.3,146.4 L 54.5,146.5 L 55.0,146.5 L 55.4,146.6 L 56.0,146.6 L 56.4,146.6 L 56.7,146.6 L 58.2,146.5 L 58.7,146.5 L 59.1,146.4 L 59.9,146.4 L 60.2,146.4 L 61.1,146.5 L 62.9,146.5 L 63.5,146.6 L 64.5,146.7 L 65.4,146.6 L 65.5,146.6 L 67.1,146.3 L 67.5,146.2 L 67.8,146.1 L 68.6,146.0 L 69.5,146.0 L 70.1,145.9 L 70.8,146.1 L 70.9,146.1 L 71.1,146.2 L 71.6,146.3 L 74.1,146.5 L 74.3,146.5 L 74.5,146.5 L 74.9,146.4 L 75.4,146.4 L 75.8,146.4 L 75.8,146.4 L 77.7,146.3 L 79.7,145.7 L 80.3,145.5 L 81.2,145.2 L 81.5,145.0 L 81.8,144.9 L 83.9,145.4 L 84.8,145.9 L 85.0,146.0 L 85.2,146.1 L 85.8,146.4 L 86.6,146.8 L 87.4,147.1 L 88.1,147.1 L 88.7,147.0 L 88.9,147.0 L 89.0,147.0 L 89.1,147.0 L 89.4,146.9 L 90.0,146.6 L 90.6,146.3 L 90.8,146.2 L 91.0,146.1 L 92.5,144.2 L 92.8,143.8 L 93.7,142.3 L 95.9,139.1 L 96.6,138.0 L 98.0,136.2 L 98.4,135.7 L 99.8,133.9 L 100.9,132.8 L 101.3,132.4 L 102.7,131.4 L 103.6,130.6 L 106.1,128.5 L 106.4,128.3 L 106.8,128.0 L 107.5,127.6 L 108.1,127.3 L 108.7,127.0 L 109.1,126.7 L 109.4,126.5 L 110.0,126.2 L 110.7,125.7 L 110.9,125.6 L 111.1,125.5 L 111.3,125.5 L 111.7,125.3 L 112.1,125.2 L 114.0,124.7 L 116.3,123.6 L 119.9,121.1 L 120.2,120.9 L 121.9,119.2 L 123.8,117.3 L 124.3,116.9 L 125.1,116.2 L 125.8,115.6 L 126.5,115.1 L 127.9,114.1 L 128.4,113.7 L 129.4,113.0 L 129.7,112.8 L 130.0,112.5 L 131.7,110.5 L 132.3,110.0 L 133.4,109.2 L 134.4,108.6 L 135.6,108.2 L 136.2,108.1 L 137.0,108.4 L 137.6,108.7 L 137.9,108.8 L 138.3,109.5 L 138.5,109.8 L 138.7,110.1 L 139.1,110.7 L 139.7,111.7 L 140.2,112.5 L 141.0,114.1 L 141.1,114.3 L 141.3,114.6 L 141.8,115.3 L 142.0,115.3 L 142.3,115.3 L 143.2,115.2 L 143.3,115.2 L 143.5,115.2 L 144.4,113.9 L 145.0,113.1 L 145.2,112.8 L 145.7,112.1 L 147.1,110.3 L 147.8,109.6 L 148.1,109.4 L 149.9,108.2 L 150.2,108.0 L 150.4,108.0 L 150.7,107.8 L 152.7,106.4 L 153.3,106.0 L 157.5,103.8 L 160.0,103.4 L 160.5,103.3 L 160.9,103.2 L 170.2,99.4 L 170.5,99.2 L 170.9,99.1 L 171.3,98.9 L 171.8,98.7 L 172.2,98.5 L 172.4,98.4 L 175.0,97.7 L 178.0,96.2 L 178.3,96.1 L 179.0,95.6 L 179.6,94.9 L 180.5,94.1 L 180.6,94.0 L 180.9,93.7 L 182.3,92.1 L 182.8,91.6 L 183.0,91.5 L 183.9,90.7 L 184.5,90.1 L 185.1,89.5 L 185.2,89.4 L 185.3,89.3 L 186.4,88.0 L 187.0,87.2 L 187.9,86.0 L 188.2,85.7 L 188.4,85.5 L 189.1,84.6 L 190.4,83.1 L 193.1,79.8 L 193.6,79.1 L 194.2,78.3 L 194.8,77.7 L 195.2,77.3 L 195.4,77.0 L 195.6,76.8 L 195.7,76.7 L 195.9,76.5 L 196.0,76.3 L 196.5,75.7 L 196.5,75.6 L 196.6,75.5 L 196.7,75.3 L 196.8,75.2 L 196.9,75.1 L 197.3,74.5 L 197.7,74.0 L 198.1,73.5 L 198.4,73.1 L 198.6,72.9 L 198.7,72.7 L 199.0,72.4 L 199.7,71.6 L 200.0,71.3 L 200.3,71.1 L 200.5,70.9 L 201.1,70.4 L 201.5,69.9 L 201.9,69.7 L 202.1,69.5 L 202.6,69.1 L 203.1,68.7 L 203.4,68.4 L 203.7,68.3 L 203.9,68.3 L 204.1,68.4 L 204.3,68.5 L 204.3,68.5 L 204.6,68.6 L 204.9,68.7 L 205.0,68.7 L 205.2,68.7 L 205.8,69.0 L 205.9,69.0 L 206.5,69.3 L 206.7,69.4 L 207.1,69.6 L 207.3,69.7 L 207.5,69.8 L 208.0,70.1 L 208.1,70.2 L 208.7,70.6 L 209.2,71.0 L 209.3,71.0 L 209.7,71.2 L 209.8,71.2 L 209.9,71.2 L 210.1,71.3 L 210.4,71.3 L 210.5,71.3 L 211.2,71.5 L 211.4,71.5 L 211.6,71.4 L 211.8,71.3 L 212.3,71.0 L 212.5,70.9 L 212.6,70.9 L 212.7,70.8 L 213.0,70.6 L 213.1,70.6 L 213.2,70.5 L 213.8,70.5 L 214.2,70.5 L 214.4,70.5 L 214.9,70.6 L 215.2,70.6 L 215.5,70.7 L 215.9,71.0 L 216.2,71.2 L 216.4,71.3 L 216.7,71.5 L 216.8,71.6 L 216.8,71.6 L 217.0,71.7 L 217.3,71.9 L 217.5,71.9 L 217.6,71.9 L 218.1,72.0 L 218.2,72.0 L 218.6,72.1 L 218.7,72.1 L 218.9,72.2 L 219.0,72.2 L 219.2,72.2 L 219.2,72.3 L 219.3,72.3 L 219.4,72.3 L 219.9,72.5 L 220.0,72.5 L 220.8,72.8 L 221.3,72.9 L 221.6,72.8 L 221.7,72.8 L 222.2,72.8 L 222.5,72.8 L 222.6,72.7 L 222.8,72.7 L 222.9,72.7 L 223.3,72.5 L 223.4,72.4 L 224.3,71.9 L 224.6,71.6 L 224.7,71.5 L 224.8,71.5 L 224.9,71.4 L 225.0,71.3 L 225.4,70.7 L 226.5,69.1 L 227.2,68.3 L 227.5,68.1 L 227.7,67.9 L 227.9,67.8 L 228.4,67.4 L 228.7,67.2 L 229.2,67.3 L 229.8,67.6 L 230.4,67.9 L 230.9,68.2 L 231.3,68.5 L 233.0,69.6 L 233.7,69.9 L 234.0,70.0 L 234.9,70.5 L 235.1,70.6 L 235.2,70.7 L 235.5,70.9 L 236.9,72.1 L 239.7,74.4 L 240.9,75.4 L 241.1,75.5 L 241.2,75.6 L 241.9,76.1 L 242.0,76.2 L 242.2,76.4 L 243.0,76.9 L 243.1,76.9 L 243.2,77.0 L 243.3,77.1 L 243.7,77.3 L 243.8,77.4 L 244.4,77.9 L 244.6,78.0 L 244.7,78.0 L 245.1,78.4 L 245.2,78.4 L 245.7,78.8 L 246.2,79.2 L 246.3,79.3 L 246.4,79.5 L 246.7,80.0 L 247.1,80.5 L 247.3,80.9 L 247.9,81.8 L 248.0,82.0 L 248.1,82.1 L 248.3,82.4 L 248.7,83.1 L 248.9,83.5 L 249.7,84.8 L 250.2,85.7 L 250.6,86.2 L 250.7,86.4 L 250.8,86.6 L 250.9,86.8 L 251.3,87.3 L 251.4,87.5 L 251.8,88.1 L 252.0,88.4 L 252.1,88.6 L 252.2,88.7 L 252.3,88.8 L 252.7,89.3 L 253.0,89.6 L 253.5,90.1 L 253.6,90.3 L 253.7,90.4 L 254.3,91.1 L 254.7,91.7 L 254.8,91.8 L 254.9,91.9 L 255.0,92.0 L 255.1,92.2 L 255.2,92.4 L 255.3,92.5 L 255.5,92.7 L 255.9,93.3 L 256.1,93.5 L 256.3,93.7 L 256.6,94.1 L 257.2,94.9 L 257.8,95.7 L 257.9,95.7 L 258.1,95.9 L 258.3,96.0 L 259.3,96.7 L 259.8,97.0 L 260.1,96.8 L 260.2,96.7 L 260.4,96.6 L 260.5,96.5 L 260.6,96.4 L 260.8,96.3 L 260.9,96.2 L 261.0,96.1 L 262.1,95.0 L 262.2,94.8 L 262.5,94.2 L 263.2,93.0 L 263.8,92.1 L 263.9,91.9 L 264.0,91.7 L 264.6,90.9 L 264.9,90.5 L 265.0,90.2 L 265.1,90.1 L 265.2,90.0 L 265.3,89.8 L 265.6,89.5 L 265.9,88.7 L 266.4,87.8 L 266.7,87.2 L 267.1,86.3 L 269.1,82.5 L 269.5,81.7 L 269.9,81.3 L 270.0,81.1 L 270.3,80.7 L 270.6,80.3 L 270.9,80.0 L 271.7,79.2 L 272.0,79.1 L 272.2,79.0 L 272.3,78.9 L 272.7,78.8 L 273.1,78.5 L 273.4,78.5 L 273.9,78.7 L 274.4,78.9 L 274.7,79.0 L 274.9,79.1 L 275.2,79.2 L 275.6,79.6 L 275.8,79.8 L 276.1,80.1 L 277.7,81.6 L 278.6,82.2 L 282.2,83.9 L 285.5,85.7 L 285.6,85.7 L 286.9,86.7 L 288.1,86.5 L 288.5,86.5 L 288.9,86.3 L 289.5,85.4 L 291.5,82.9 L 291.8,82.5 L 292.1,82.2 L 292.2,82.0 L 292.5,81.7 L 294.2,80.6 L 295.9,79.8 L 297.8,79.2 L 299.3,79.4 L 299.3,79.4 L 299.7,79.5 L 299.9,79.7 L 300.2,79.8 L 300.5,79.9 L 300.6,80.0 L 300.7,80.0 L 301.0,80.1 L 301.4,80.3 L 301.8,80.5 L 302.0,80.6 L 302.2,80.7 L 302.5,80.8 L 303.1,81.2 L 303.9,81.7 L 304.2,81.9 L 305.1,83.1 L 306.4,84.8 L 307.2,84.9 L 307.6,85.0 L 308.7,84.8 L 309.6,84.3 L 309.8,84.2 L 311.0,83.6 L 311.1,83.5 L 312.7,83.0 L 313.1,82.9 L 313.3,82.8 L 313.8,82.7 L 315.0,82.6 L 315.1,82.6 L 316.0,82.6 L 316.1,82.6 L 318.4,83.6 L 318.7,83.7 L 319.5,83.9 L 320.9,84.1 L 321.2,84.1 L 321.3,84.1 L 325.1,85.4 L 325.4,85.5 L 325.7,85.6 L 326.1,85.9 L 328.1,87.1 L 333.2,91.8 L 333.7,92.2 L 333.9,92.4 L 334.3,92.8 L 336.1,94.3 L 337.1,95.0 L 337.6,95.3 L 338.3,95.7 L 339.6,96.4 L 340.0,96.6 L 340.3,96.8 L 340.7,97.0 L 341.7,97.6 L 341.9,97.7 L 342.5,98.0 L 342.8,98.2 L 343.0,98.3 L 343.4,98.2 L 344.1,98.0 L 345.1,97.6 L 345.5,97.3 L 345.9,97.0 L 346.7,96.3 L 348.4,95.6 L 349.0,95.5 L 349.4,95.6 L 349.7,95.7 L 349.8,95.7 L 350.0,95.8 L 350.1,95.8 L 350.3,95.9 L 350.5,96.0 L 350.6,96.0 L 350.8,96.1 L 351.0,96.4 L 351.9,97.5 L 353.9,100.5 L 354.2,100.9 L 354.5,101.3 L 354.7,101.6 L 356.0,103.5 L 356.2,103.7 L 356.6,104.4 L 356.9,104.8 L 358.3,107.3 L 358.4,107.5 L 358.9,108.4 L 359.3,108.9 L 359.5,109.2 L 360.1,110.2 L 360.2,110.4 L 360.5,110.8 L 360.7,111.2 L 360.8,111.4 L 361.2,112.0 L 361.8,113.0 L 362.0,113.3 L 362.1,113.4 L 362.2,113.7 L 362.4,113.9 L 362.8,114.5 L 363.0,114.7 L 363.1,114.8 L 363.8,115.7 L 363.9,115.8 L 364.2,116.3 L 364.5,116.3 L 364.7,116.3 L 364.8,116.4 L 365.2,116.4 L 365.7,116.4 L 366.2,116.5 L 366.6,116.5 L 367.5,116.5 L 368.1,116.6 L 370.1,116.6 L 371.5,116.9 L 372.9,117.2 L 374.5,117.5 L 377.0,117.8 L 379.1,118.2 L 379.8,118.3 L 380.7,118.6 L 381.0,118.8 L 381.4,118.9 L 384.2,119.8 L 385.9,120.2 L 386.1,120.2 L 387.6,120.0 L 389.9,118.7 L 390.5,118.1 L 390.8,117.9 L 391.3,117.5 L 391.8,117.2 L 393.0,116.6 L 393.7,116.4 L 394.5,116.4 L 395.0,116.4 L 395.2,116.4 L 395.7,116.7 L 397.2,117.5 L 397.9,117.7 L 398.7,117.9 L 399.0,118.0 L 399.0,118.0 L 399.4,118.1 L 400.0,118.3 L 400.2,118.3 L 400.4,118.4 L 401.7,119.0 L 402.9,119.8 L 403.6,120.6 L 403.7,120.7 L 403.8,120.8 L 404.7,121.8 L 405.3,122.3 L 405.8,122.6 L 406.4,123.0 L 406.6,123.1 L 407.0,123.3 L 408.4,123.6 L 409.8,123.8 L 411.9,124.1 L 412.1,124.1 L 412.4,124.2 L 412.8,124.2 L 413.0,124.2 L 413.3,124.1 L 414.2,124.1 L 414.7,124.0 L 415.0,123.8 L 415.2,123.7 L 416.8,122.8 L 417.0,122.7 L 417.2,122.6 L 417.6,122.3 L 417.8,122.2 L 418.3,121.8 L 418.5,121.8 L 418.9,121.9 L 419.2,122.1 L 420.6,122.7 L 421.0,122.8 L 421.2,122.9 L 421.6,123.0 L 421.9,123.1 L 423.6,122.7 L 424.0,122.5 L 424.2,122.4 L 424.7,122.6 L 425.1,122.8 L 425.3,122.9 L 425.7,123.1 L 426.5,123.6 L 428.2,124.7 L 428.9,124.9 L 430.2,125.2 L 431.1,125.4 L 431.7,125.5 L 432.6,125.6 L 433.3,125.7 L 433.8,125.7 L 436.3,125.9 L 441.0,126.6 L 441.3,126.7 L 441.9,126.6 L 443.7,126.1 L 445.2,125.7 L 446.7,125.1 L 447.2,124.9 L 447.8,124.5 L 449.0,123.9 L 449.6,123.7 L 449.9,123.8 L 450.2,123.9 L 450.5,124.0 L 451.1,124.2 L 451.7,124.4 L 452.0,124.6 L 452.3,124.8 L 452.6,125.0 L 452.9,125.2 L 453.2,125.3 L 460.3,127.5 L 460.5,127.6 L 461.0,127.7 L 461.7,127.9 L 464.3,128.4 L 464.7,128.5 L 467.8,127.9 L 468.3,127.9 L 469.0,128.0 L 469.7,128.4 L 470.8,128.9 L 471.3,129.1 L 473.6,129.4 L 474.0,129.4 L 477.5,129.6 L 477.9,129.6 L 479.9,130.2 L 480.3,130.3 L 480.7,130.4 L 482.6,130.6 L 483.2,130.5 L 483.3,130.5 L 483.4,130.5 L 483.5,130.5 L 485.0,130.2 L 486.4,129.9 L 487.6,129.4 L 487.8,129.3 L 488.9,129.1 L 489.6,128.9 L 490.9,128.9 L 491.3,128.9 L 491.6,128.9 L 492.8,129.3 L 493.8,129.8 L 494.0,129.8 L 494.3,130.0 L 495.3,130.4 L 495.3,130.4 L 495.6,130.5 L 496.1,130.6 L 496.3,130.6 L 497.3,130.5 L 497.5,130.5 L 498.2,130.2 L 498.6,129.9 L 498.7,129.8 L 498.8,129.7 L 499.1,129.5 L 499.5,129.2 L 499.7,129.1 L 500.9,129.1 L 501.2,129.1 L 502.3,129.6 L 502.6,129.8 L 503.6,130.5 L 503.8,130.6 L 504.7,130.9 L 505.1,131.0 L 505.2,131.0 L 505.7,131.2 L 505.7,131.2 L 506.1,131.3 L 507.6,131.8 L 507.9,131.8 L 508.3,132.0 L 508.7,132.0 L 508.9,132.1 L 511.8,132.4 L 516.8,132.1 L 517.6,132.1 L 521.6,132.0 L 522.0,132.0 L 523.3,132.2 L 524.8,132.6 L 525.1,132.6 L 525.3,132.6 L 525.6,132.7 L 526.2,132.8 L 527.4,133.1 L 527.5,133.1 L 528.5,133.2 L 530.1,133.4 L 531.1,133.5 L 531.8,133.4 L 532.7,133.4 L 532.8,133.4 L 532.9,133.3 L 533.2,133.3 L 534.5,133.3 L 536.1,133.0 L 536.2,133.0 L 536.3,133.0 L 536.7,132.9 L 536.8,132.8 L 536.9,132.8 L 537.1,132.7 L 537.2,132.7 L 537.4,132.6 L 537.9,132.4 L 542.2,132.2 L 542.6,132.3 L 543.0,132.4 L 543.4,132.4 L 545.0,132.7 L 545.5,132.9 L 546.1,133.0 L 547.3,133.2 L 547.5,133.2 L 547.7,133.3 L 551.0,133.1 L 551.6,133.1 L 551.8,133.0 L 553.7,132.4 L 554.1,132.3 L 555.1,132.2 L 555.3,132.2 L 556.0,132.2 L 558.3,131.8 L 558.7,131.6 L 559.0,131.5 L 560.7,130.9 L 561.4,130.6 L 563.4,130.2 L 564.7,130.5 L 564.9,130.6 L 565.0,130.6 L 565.1,130.7 L 565.3,130.7 L 565.8,131.0 L 565.9,131.1 L 566.2,131.3 L 566.2,131.4 L 566.4,131.5 L 566.6,131.6 L 566.9,131.8 L 567.0,131.9 L 567.1,132.0 L 567.4,132.2 L 567.7,132.4 L 567.9,132.5 L 568.1,132.6 L 569.1,133.1 L 569.6,133.4 L 570.2,133.7 L 570.3,133.8 L 570.5,133.8 L 571.7,134.1 L 573.0,133.9 L 573.7,133.7 L 574.5,133.3 L 574.8,133.2 L 574.9,133.2 L 575.2,133.1 L 575.4,133.1 L 576.7,133.4 L 582.9,134.6 L 584.5,135.0 L 586.5,136.1 L 587.1,136.4 L 588.2,137.0 L 588.8,137.3 L 589.3,137.5 L 589.7,137.7 L 590.1,137.8 L 592.4,138.0 L 594.6,138.1 L 595.6,138.2 L 596.6,138.3 L 597.6,138.4 L 598.1,138.4 L 598.6,138.5 L 601.2,138.8 L 602.8,138.8 L 604.3,138.5 L 607.0,138.2 L 608.4,138.3 L 612.2,139.0 L 612.9,139.2 L 613.6,139.5 L 614.3,139.6 L 616.7,139.9 L 617.2,140.0 L 617.7,140.0 L 618.4,140.1 L 618.9,140.1 L 619.4,140.1 L 620.8,140.1 L 621.0,140.1 L 622.4,140.2 L 622.7,140.3 L 623.0,140.3 L 623.4,140.4 L 623.9,140.4 L 624.5,140.5 L 625.6,140.5 L 626.6,140.5 L 627.4,140.5 L 627.9,140.5 L 628.9,140.6 L 630.3,140.7 L 630.6,140.7 L 630.8,140.7 L 631.2,140.7 L 631.6,140.7 L 632.1,140.8 L 632.5,140.8 L 633.8,140.9 L 635.4,141.0 L 635.8,141.0 L 636.2,141.0 L 636.5,141.0 L 636.8,141.0 L 637.5,140.9 L 639.7,140.7 L 640.3,140.7 L 641.9,140.5 L 643.4,140.4 L 644.1,140.3 L 646.3,140.2 L 647.3,140.2 L 650.7,140.6 L 650.9,140.6 L 650.9,140.6 L 651.2,140.6 L 651.6,140.6 L 652.0,140.7 L 652.5,140.7 L 653.3,140.7 L 653.9,140.7 L 654.6,140.8 L 654.7,140.8 L 654.8,140.8 L 655.0,140.7 L 660.1,140.6 L 660.3,140.6 L 660.4,140.6 L 660.6,140.6 L 660.7,140.6 L 661.0,140.7 L 661.3,140.7 L 662.0,140.8 L 662.9,140.9 L 663.0,140.9 L 663.2,140.9 L 665.3,141.3 L 666.6,141.6 L 666.7,141.6 L 667.2,141.7 L 669.0,141.9 L 669.5,142.0 L 670.0,142.0 L 670.8,142.0 L 677.8,141.9 L 678.1,141.9 L 678.5,141.9 L 678.7,141.9 L 679.0,141.9 L 680.8,141.8 L 681.3,141.8 L 681.5,141.8 L 682.6,141.9 L 683.3,142.0 L 683.4,142.0 L 684.0,142.0 L 685.0,142.1 L 685.8,142.1 L 686.9,142.2 L 687.2,142.2 L 688.6,142.3 L 688.8,142.3 L 689.6,142.4 L 690.3,142.6 L 691.2,142.8 L 693.2,144.2 L 693.6,144.4 L 693.8,144.5 L 694.1,144.6 L 694.3,144.7 L 694.4,144.7 L 694.8,144.9 L 695.6,145.0 L 697.7,144.9 L 697.9,144.9 L 698.1,144.8 L 698.1,144.8 L 698.1,144.8 L 698.1,144.8 L 698.3,144.8 L 698.5,144.8 L 698.7,144.7 L 698.9,144.7 L 699.4,144.5 L 699.8,144.2 L 700.7,143.7 L 701.1,143.6 L 702.0,143.4 L 702.1,143.3 L 702.8,143.2 L 704.0,143.1 L 704.0,168.0 L 44.0,168.0 Z" fill="#0891b2" fill-opacity="0.15"/>
  <path d="M 44.0,144.5 L 44.3,144.5 L 44.8,144.5 L 45.0,144.5 L 45.6,144.9 L 45.7,145.0 L 45.8,145.1 L 46.1,145.3 L 46.3,145.5 L 46.6,145.7 L 48.5,146.0 L 49.1,146.0 L 50.2,146.2 L 50.4,146.2 L 51.0,146.3 L 53.3,146.4 L 54.5,146.5 L 55.0,146.5 L 55.4,146.6 L 56.0,146.6 L 56.4,146.6 L 56.7,146.6 L 58.2,146.5 L 58.7,146.5 L 59.1,146.4 L 59.9,146.4 L 60.2,146.4 L 61.1,146.5 L 62.9,146.5 L 63.5,146.6 L 64.5,146.7 L 65.4,146.6 L 65.5,146.6 L 67.1,146.3 L 67.5,146.2 L 67.8,146.1 L 68.6,146.0 L 69.5,146.0 L 70.1,145.9 L 70.8,146.1 L 70.9,146.1 L 71.1,146.2 L 71.6,146.3 L 74.1,146.5 L 74.3,146.5 L 74.5,146.5 L 74.9,146.4 L 75.4,146.4 L 75.8,146.4 L 75.8,146.4 L 77.7,146.3 L 79.7,145.7 L 80.3,145.5 L 81.2,145.2 L 81.5,145.0 L 81.8,144.9 L 83.9,145.4 L 84.8,145.9 L 85.0,146.0 L 85.2,146.1 L 85.8,146.4 L 86.6,146.8 L 87.4,147.1 L 88.1,147.1 L 88.7,147.0 L 88.9,147.0 L 89.0,147.0 L 89.1,147.0 L 89.4,146.9 L 90.0,146.6 L 90.6,146.3 L 90.8,146.2 L 91.0,146.1 L 92.5,144.2 L 92.8,143.8 L 93.7,142.3 L 95.9,139.1 L 96.6,138.0 L 98.0,136.2 L 98.4,135.7 L 99.8,133.9 L 100.9,132.8 L 101.3,132.4 L 102.7,131.4 L 103.6,130.6 L 106.1,128.5 L 106.4,128.3 L 106.8,128.0 L 107.5,127.6 L 108.1,127.3 L 108.7,127.0 L 109.1,126.7 L 109.4,126.5 L 110.0,126.2 L 110.7,125.7 L 110.9,125.6 L 111.1,125.5 L 111.3,125.5 L 111.7,125.3 L 112.1,125.2 L 114.0,124.7 L 116.3,123.6 L 119.9,121.1 L 120.2,120.9 L 121.9,119.2 L 123.8,117.3 L 124.3,116.9 L 125.1,116.2 L 125.8,115.6 L 126.5,115.1 L 127.9,114.1 L 128.4,113.7 L 129.4,113.0 L 129.7,112.8 L 130.0,112.5 L 131.7,110.5 L 132.3,110.0 L 133.4,109.2 L 134.4,108.6 L 135.6,108.2 L 136.2,108.1 L 137.0,108.4 L 137.6,108.7 L 137.9,108.8 L 138.3,109.5 L 138.5,109.8 L 138.7,110.1 L 139.1,110.7 L 139.7,111.7 L 140.2,112.5 L 141.0,114.1 L 141.1,114.3 L 141.3,114.6 L 141.8,115.3 L 142.0,115.3 L 142.3,115.3 L 143.2,115.2 L 143.3,115.2 L 143.5,115.2 L 144.4,113.9 L 145.0,113.1 L 145.2,112.8 L 145.7,112.1 L 147.1,110.3 L 147.8,109.6 L 148.1,109.4 L 149.9,108.2 L 150.2,108.0 L 150.4,108.0 L 150.7,107.8 L 152.7,106.4 L 153.3,106.0 L 157.5,103.8 L 160.0,103.4 L 160.5,103.3 L 160.9,103.2 L 170.2,99.4 L 170.5,99.2 L 170.9,99.1 L 171.3,98.9 L 171.8,98.7 L 172.2,98.5 L 172.4,98.4 L 175.0,97.7 L 178.0,96.2 L 178.3,96.1 L 179.0,95.6 L 179.6,94.9 L 180.5,94.1 L 180.6,94.0 L 180.9,93.7 L 182.3,92.1 L 182.8,91.6 L 183.0,91.5 L 183.9,90.7 L 184.5,90.1 L 185.1,89.5 L 185.2,89.4 L 185.3,89.3 L 186.4,88.0 L 187.0,87.2 L 187.9,86.0 L 188.2,85.7 L 188.4,85.5 L 189.1,84.6 L 190.4,83.1 L 193.1,79.8 L 193.6,79.1 L 194.2,78.3 L 194.8,77.7 L 195.2,77.3 L 195.4,77.0 L 195.6,76.8 L 195.7,76.7 L 195.9,76.5 L 196.0,76.3 L 196.5,75.7 L 196.5,75.6 L 196.6,75.5 L 196.7,75.3 L 196.8,75.2 L 196.9,75.1 L 197.3,74.5 L 197.7,74.0 L 198.1,73.5 L 198.4,73.1 L 198.6,72.9 L 198.7,72.7 L 199.0,72.4 L 199.7,71.6 L 200.0,71.3 L 200.3,71.1 L 200.5,70.9 L 201.1,70.4 L 201.5,69.9 L 201.9,69.7 L 202.1,69.5 L 202.6,69.1 L 203.1,68.7 L 203.4,68.4 L 203.7,68.3 L 203.9,68.3 L 204.1,68.4 L 204.3,68.5 L 204.3,68.5 L 204.6,68.6 L 204.9,68.7 L 205.0,68.7 L 205.2,68.7 L 205.8,69.0 L 205.9,69.0 L 206.5,69.3 L 206.7,69.4 L 207.1,69.6 L 207.3,69.7 L 207.5,69.8 L 208.0,70.1 L 208.1,70.2 L 208.7,70.6 L 209.2,71.0 L 209.3,71.0 L 209.7,71.2 L 209.8,71.2 L 209.9,71.2 L 210.1,71.3 L 210.4,71.3 L 210.5,71.3 L 211.2,71.5 L 211.4,71.5 L 211.6,71.4 L 211.8,71.3 L 212.3,71.0 L 212.5,70.9 L 212.6,70.9 L 212.7,70.8 L 213.0,70.6 L 213.1,70.6 L 213.2,70.5 L 213.8,70.5 L 214.2,70.5 L 214.4,70.5 L 214.9,70.6 L 215.2,70.6 L 215.5,70.7 L 215.9,71.0 L 216.2,71.2 L 216.4,71.3 L 216.7,71.5 L 216.8,71.6 L 216.8,71.6 L 217.0,71.7 L 217.3,71.9 L 217.5,71.9 L 217.6,71.9 L 218.1,72.0 L 218.2,72.0 L 218.6,72.1 L 218.7,72.1 L 218.9,72.2 L 219.0,72.2 L 219.2,72.2 L 219.2,72.3 L 219.3,72.3 L 219.4,72.3 L 219.9,72.5 L 220.0,72.5 L 220.8,72.8 L 221.3,72.9 L 221.6,72.8 L 221.7,72.8 L 222.2,72.8 L 222.5,72.8 L 222.6,72.7 L 222.8,72.7 L 222.9,72.7 L 223.3,72.5 L 223.4,72.4 L 224.3,71.9 L 224.6,71.6 L 224.7,71.5 L 224.8,71.5 L 224.9,71.4 L 225.0,71.3 L 225.4,70.7 L 226.5,69.1 L 227.2,68.3 L 227.5,68.1 L 227.7,67.9 L 227.9,67.8 L 228.4,67.4 L 228.7,67.2 L 229.2,67.3 L 229.8,67.6 L 230.4,67.9 L 230.9,68.2 L 231.3,68.5 L 233.0,69.6 L 233.7,69.9 L 234.0,70.0 L 234.9,70.5 L 235.1,70.6 L 235.2,70.7 L 235.5,70.9 L 236.9,72.1 L 239.7,74.4 L 240.9,75.4 L 241.1,75.5 L 241.2,75.6 L 241.9,76.1 L 242.0,76.2 L 242.2,76.4 L 243.0,76.9 L 243.1,76.9 L 243.2,77.0 L 243.3,77.1 L 243.7,77.3 L 243.8,77.4 L 244.4,77.9 L 244.6,78.0 L 244.7,78.0 L 245.1,78.4 L 245.2,78.4 L 245.7,78.8 L 246.2,79.2 L 246.3,79.3 L 246.4,79.5 L 246.7,80.0 L 247.1,80.5 L 247.3,80.9 L 247.9,81.8 L 248.0,82.0 L 248.1,82.1 L 248.3,82.4 L 248.7,83.1 L 248.9,83.5 L 249.7,84.8 L 250.2,85.7 L 250.6,86.2 L 250.7,86.4 L 250.8,86.6 L 250.9,86.8 L 251.3,87.3 L 251.4,87.5 L 251.8,88.1 L 252.0,88.4 L 252.1,88.6 L 252.2,88.7 L 252.3,88.8 L 252.7,89.3 L 253.0,89.6 L 253.5,90.1 L 253.6,90.3 L 253.7,90.4 L 254.3,91.1 L 254.7,91.7 L 254.8,91.8 L 254.9,91.9 L 255.0,92.0 L 255.1,92.2 L 255.2,92.4 L 255.3,92.5 L 255.5,92.7 L 255.9,93.3 L 256.1,93.5 L 256.3,93.7 L 256.6,94.1 L 257.2,94.9 L 257.8,95.7 L 257.9,95.7 L 258.1,95.9 L 258.3,96.0 L 259.3,96.7 L 259.8,97.0 L 260.1,96.8 L 260.2,96.7 L 260.4,96.6 L 260.5,96.5 L 260.6,96.4 L 260.8,96.3 L 260.9,96.2 L 261.0,96.1 L 262.1,95.0 L 262.2,94.8 L 262.5,94.2 L 263.2,93.0 L 263.8,92.1 L 263.9,91.9 L 264.0,91.7 L 264.6,90.9 L 264.9,90.5 L 265.0,90.2 L 265.1,90.1 L 265.2,90.0 L 265.3,89.8 L 265.6,89.5 L 265.9,88.7 L 266.4,87.8 L 266.7,87.2 L 267.1,86.3 L 269.1,82.5 L 269.5,81.7 L 269.9,81.3 L 270.0,81.1 L 270.3,80.7 L 270.6,80.3 L 270.9,80.0 L 271.7,79.2 L 272.0,79.1 L 272.2,79.0 L 272.3,78.9 L 272.7,78.8 L 273.1,78.5 L 273.4,78.5 L 273.9,78.7 L 274.4,78.9 L 274.7,79.0 L 274.9,79.1 L 275.2,79.2 L 275.6,79.6 L 275.8,79.8 L 276.1,80.1 L 277.7,81.6 L 278.6,82.2 L 282.2,83.9 L 285.5,85.7 L 285.6,85.7 L 286.9,86.7 L 288.1,86.5 L 288.5,86.5 L 288.9,86.3 L 289.5,85.4 L 291.5,82.9 L 291.8,82.5 L 292.1,82.2 L 292.2,82.0 L 292.5,81.7 L 294.2,80.6 L 295.9,79.8 L 297.8,79.2 L 299.3,79.4 L 299.3,79.4 L 299.7,79.5 L 299.9,79.7 L 300.2,79.8 L 300.5,79.9 L 300.6,80.0 L 300.7,80.0 L 301.0,80.1 L 301.4,80.3 L 301.8,80.5 L 302.0,80.6 L 302.2,80.7 L 302.5,80.8 L 303.1,81.2 L 303.9,81.7 L 304.2,81.9 L 305.1,83.1 L 306.4,84.8 L 307.2,84.9 L 307.6,85.0 L 308.7,84.8 L 309.6,84.3 L 309.8,84.2 L 311.0,83.6 L 311.1,83.5 L 312.7,83.0 L 313.1,82.9 L 313.3,82.8 L 313.8,82.7 L 315.0,82.6 L 315.1,82.6 L 316.0,82.6 L 316.1,82.6 L 318.4,83.6 L 318.7,83.7 L 319.5,83.9 L 320.9,84.1 L 321.2,84.1 L 321.3,84.1 L 325.1,85.4 L 325.4,85.5 L 325.7,85.6 L 326.1,85.9 L 328.1,87.1 L 333.2,91.8 L 333.7,92.2 L 333.9,92.4 L 334.3,92.8 L 336.1,94.3 L 337.1,95.0 L 337.6,95.3 L 338.3,95.7 L 339.6,96.4 L 340.0,96.6 L 340.3,96.8 L 340.7,97.0 L 341.7,97.6 L 341.9,97.7 L 342.5,98.0 L 342.8,98.2 L 343.0,98.3 L 343.4,98.2 L 344.1,98.0 L 345.1,97.6 L 345.5,97.3 L 345.9,97.0 L 346.7,96.3 L 348.4,95.6 L 349.0,95.5 L 349.4,95.6 L 349.7,95.7 L 349.8,95.7 L 350.0,95.8 L 350.1,95.8 L 350.3,95.9 L 350.5,96.0 L 350.6,96.0 L 350.8,96.1 L 351.0,96.4 L 351.9,97.5 L 353.9,100.5 L 354.2,100.9 L 354.5,101.3 L 354.7,101.6 L 356.0,103.5 L 356.2,103.7 L 356.6,104.4 L 356.9,104.8 L 358.3,107.3 L 358.4,107.5 L 358.9,108.4 L 359.3,108.9 L 359.5,109.2 L 360.1,110.2 L 360.2,110.4 L 360.5,110.8 L 360.7,111.2 L 360.8,111.4 L 361.2,112.0 L 361.8,113.0 L 362.0,113.3 L 362.1,113.4 L 362.2,113.7 L 362.4,113.9 L 362.8,114.5 L 363.0,114.7 L 363.1,114.8 L 363.8,115.7 L 363.9,115.8 L 364.2,116.3 L 364.5,116.3 L 364.7,116.3 L 364.8,116.4 L 365.2,116.4 L 365.7,116.4 L 366.2,116.5 L 366.6,116.5 L 367.5,116.5 L 368.1,116.6 L 370.1,116.6 L 371.5,116.9 L 372.9,117.2 L 374.5,117.5 L 377.0,117.8 L 379.1,118.2 L 379.8,118.3 L 380.7,118.6 L 381.0,118.8 L 381.4,118.9 L 384.2,119.8 L 385.9,120.2 L 386.1,120.2 L 387.6,120.0 L 389.9,118.7 L 390.5,118.1 L 390.8,117.9 L 391.3,117.5 L 391.8,117.2 L 393.0,116.6 L 393.7,116.4 L 394.5,116.4 L 395.0,116.4 L 395.2,116.4 L 395.7,116.7 L 397.2,117.5 L 397.9,117.7 L 398.7,117.9 L 399.0,118.0 L 399.0,118.0 L 399.4,118.1 L 400.0,118.3 L 400.2,118.3 L 400.4,118.4 L 401.7,119.0 L 402.9,119.8 L 403.6,120.6 L 403.7,120.7 L 403.8,120.8 L 404.7,121.8 L 405.3,122.3 L 405.8,122.6 L 406.4,123.0 L 406.6,123.1 L 407.0,123.3 L 408.4,123.6 L 409.8,123.8 L 411.9,124.1 L 412.1,124.1 L 412.4,124.2 L 412.8,124.2 L 413.0,124.2 L 413.3,124.1 L 414.2,124.1 L 414.7,124.0 L 415.0,123.8 L 415.2,123.7 L 416.8,122.8 L 417.0,122.7 L 417.2,122.6 L 417.6,122.3 L 417.8,122.2 L 418.3,121.8 L 418.5,121.8 L 418.9,121.9 L 419.2,122.1 L 420.6,122.7 L 421.0,122.8 L 421.2,122.9 L 421.6,123.0 L 421.9,123.1 L 423.6,122.7 L 424.0,122.5 L 424.2,122.4 L 424.7,122.6 L 425.1,122.8 L 425.3,122.9 L 425.7,123.1 L 426.5,123.6 L 428.2,124.7 L 428.9,124.9 L 430.2,125.2 L 431.1,125.4 L 431.7,125.5 L 432.6,125.6 L 433.3,125.7 L 433.8,125.7 L 436.3,125.9 L 441.0,126.6 L 441.3,126.7 L 441.9,126.6 L 443.7,126.1 L 445.2,125.7 L 446.7,125.1 L 447.2,124.9 L 447.8,124.5 L 449.0,123.9 L 449.6,123.7 L 449.9,123.8 L 450.2,123.9 L 450.5,124.0 L 451.1,124.2 L 451.7,124.4 L 452.0,124.6 L 452.3,124.8 L 452.6,125.0 L 452.9,125.2 L 453.2,125.3 L 460.3,127.5 L 460.5,127.6 L 461.0,127.7 L 461.7,127.9 L 464.3,128.4 L 464.7,128.5 L 467.8,127.9 L 468.3,127.9 L 469.0,128.0 L 469.7,128.4 L 470.8,128.9 L 471.3,129.1 L 473.6,129.4 L 474.0,129.4 L 477.5,129.6 L 477.9,129.6 L 479.9,130.2 L 480.3,130.3 L 480.7,130.4 L 482.6,130.6 L 483.2,130.5 L 483.3,130.5 L 483.4,130.5 L 483.5,130.5 L 485.0,130.2 L 486.4,129.9 L 487.6,129.4 L 487.8,129.3 L 488.9,129.1 L 489.6,128.9 L 490.9,128.9 L 491.3,128.9 L 491.6,128.9 L 492.8,129.3 L 493.8,129.8 L 494.0,129.8 L 494.3,130.0 L 495.3,130.4 L 495.3,130.4 L 495.6,130.5 L 496.1,130.6 L 496.3,130.6 L 497.3,130.5 L 497.5,130.5 L 498.2,130.2 L 498.6,129.9 L 498.7,129.8 L 498.8,129.7 L 499.1,129.5 L 499.5,129.2 L 499.7,129.1 L 500.9,129.1 L 501.2,129.1 L 502.3,129.6 L 502.6,129.8 L 503.6,130.5 L 503.8,130.6 L 504.7,130.9 L 505.1,131.0 L 505.2,131.0 L 505.7,131.2 L 505.7,131.2 L 506.1,131.3 L 507.6,131.8 L 507.9,131.8 L 508.3,132.0 L 508.7,132.0 L 508.9,132.1 L 511.8,132.4 L 516.8,132.1 L 517.6,132.1 L 521.6,132.0 L 522.0,132.0 L 523.3,132.2 L 524.8,132.6 L 525.1,132.6 L 525.3,132.6 L 525.6,132.7 L 526.2,132.8 L 527.4,133.1 L 527.5,133.1 L 528.5,133.2 L 530.1,133.4 L 531.1,133.5 L 531.8,133.4 L 532.7,133.4 L 532.8,133.4 L 532.9,133.3 L 533.2,133.3 L 534.5,133.3 L 536.1,133.0 L 536.2,133.0 L 536.3,133.0 L 536.7,132.9 L 536.8,132.8 L 536.9,132.8 L 537.1,132.7 L 537.2,132.7 L 537.4,132.6 L 537.9,132.4 L 542.2,132.2 L 542.6,132.3 L 543.0,132.4 L 543.4,132.4 L 545.0,132.7 L 545.5,132.9 L 546.1,133.0 L 547.3,133.2 L 547.5,133.2 L 547.7,133.3 L 551.0,133.1 L 551.6,133.1 L 551.8,133.0 L 553.7,132.4 L 554.1,132.3 L 555.1,132.2 L 555.3,132.2 L 556.0,132.2 L 558.3,131.8 L 558.7,131.6 L 559.0,131.5 L 560.7,130.9 L 561.4,130.6 L 563.4,130.2 L 564.7,130.5 L 564.9,130.6 L 565.0,130.6 L 565.1,130.7 L 565.3,130.7 L 565.8,131.0 L 565.9,131.1 L 566.2,131.3 L 566.2,131.4 L 566.4,131.5 L 566.6,131.6 L 566.9,131.8 L 567.0,131.9 L 567.1,132.0 L 567.4,132.2 L 567.7,132.4 L 567.9,132.5 L 568.1,132.6 L 569.1,133.1 L 569.6,133.4 L 570.2,133.7 L 570.3,133.8 L 570.5,133.8 L 571.7,134.1 L 573.0,133.9 L 573.7,133.7 L 574.5,133.3 L 574.8,133.2 L 574.9,133.2 L 575.2,133.1 L 575.4,133.1 L 576.7,133.4 L 582.9,134.6 L 584.5,135.0 L 586.5,136.1 L 587.1,136.4 L 588.2,137.0 L 588.8,137.3 L 589.3,137.5 L 589.7,137.7 L 590.1,137.8 L 592.4,138.0 L 594.6,138.1 L 595.6,138.2 L 596.6,138.3 L 597.6,138.4 L 598.1,138.4 L 598.6,138.5 L 601.2,138.8 L 602.8,138.8 L 604.3,138.5 L 607.0,138.2 L 608.4,138.3 L 612.2,139.0 L 612.9,139.2 L 613.6,139.5 L 614.3,139.6 L 616.7,139.9 L 617.2,140.0 L 617.7,140.0 L 618.4,140.1 L 618.9,140.1 L 619.4,140.1 L 620.8,140.1 L 621.0,140.1 L 622.4,140.2 L 622.7,140.3 L 623.0,140.3 L 623.4,140.4 L 623.9,140.4 L 624.5,140.5 L 625.6,140.5 L 626.6,140.5 L 627.4,140.5 L 627.9,140.5 L 628.9,140.6 L 630.3,140.7 L 630.6,140.7 L 630.8,140.7 L 631.2,140.7 L 631.6,140.7 L 632.1,140.8 L 632.5,140.8 L 633.8,140.9 L 635.4,141.0 L 635.8,141.0 L 636.2,141.0 L 636.5,141.0 L 636.8,141.0 L 637.5,140.9 L 639.7,140.7 L 640.3,140.7 L 641.9,140.5 L 643.4,140.4 L 644.1,140.3 L 646.3,140.2 L 647.3,140.2 L 650.7,140.6 L 650.9,140.6 L 650.9,140.6 L 651.2,140.6 L 651.6,140.6 L 652.0,140.7 L 652.5,140.7 L 653.3,140.7 L 653.9,140.7 L 654.6,140.8 L 654.7,140.8 L 654.8,140.8 L 655.0,140.7 L 660.1,140.6 L 660.3,140.6 L 660.4,140.6 L 660.6,140.6 L 660.7,140.6 L 661.0,140.7 L 661.3,140.7 L 662.0,140.8 L 662.9,140.9 L 663.0,140.9 L 663.2,140.9 L 665.3,141.3 L 666.6,141.6 L 666.7,141.6 L 667.2,141.7 L 669.0,141.9 L 669.5,142.0 L 670.0,142.0 L 670.8,142.0 L 677.8,141.9 L 678.1,141.9 L 678.5,141.9 L 678.7,141.9 L 679.0,141.9 L 680.8,141.8 L 681.3,141.8 L 681.5,141.8 L 682.6,141.9 L 683.3,142.0 L 683.4,142.0 L 684.0,142.0 L 685.0,142.1 L 685.8,142.1 L 686.9,142.2 L 687.2,142.2 L 688.6,142.3 L 688.8,142.3 L 689.6,142.4 L 690.3,142.6 L 691.2,142.8 L 693.2,144.2 L 693.6,144.4 L 693.8,144.5 L 694.1,144.6 L 694.3,144.7 L 694.4,144.7 L 694.8,144.9 L 695.6,145.0 L 697.7,144.9 L 697.9,144.9 L 698.1,144.8 L 698.1,144.8 L 698.1,144.8 L 698.1,144.8 L 698.3,144.8 L 698.5,144.8 L 698.7,144.7 L 698.9,144.7 L 699.4,144.5 L 699.8,144.2 L 700.7,143.7 L 701.1,143.6 L 702.0,143.4 L 702.1,143.3 L 702.8,143.2 L 704.0,143.1" fill="none" stroke="#0891b2" stroke-width="2"/>
  <line x1="44" y1="168" x2="704" y2="168" stroke="#9ca3af" stroke-width="1"/>
  <text x="38" y="172.0" text-anchor="end" font-size="11" fill="#6b7280">0</text><text x="38" y="146.3" text-anchor="end" font-size="11" fill="#6b7280">100</text><text x="38" y="120.7" text-anchor="end" font-size="11" fill="#6b7280">200</text><text x="38" y="95.0" text-anchor="end" font-size="11" fill="#6b7280">300</text><text x="38" y="69.3" text-anchor="end" font-size="11" fill="#6b7280">400</text><text x="38" y="43.7" text-anchor="end" font-size="11" fill="#6b7280">500</text><text x="38" y="18.0" text-anchor="end" font-size="11" fill="#6b7280">600</text>
  <text x="140.8" y="188" text-anchor="middle" font-size="11" fill="#6b7280">10</text><text x="237.5" y="188" text-anchor="middle" font-size="11" fill="#6b7280">20</text><text x="334.3" y="188" text-anchor="middle" font-size="11" fill="#6b7280">30</text><text x="431.0" y="188" text-anchor="middle" font-size="11" fill="#6b7280">40</text><text x="527.8" y="188" text-anchor="middle" font-size="11" fill="#6b7280">50</text>
  <text x="44" y="188" text-anchor="start" font-size="11" fill="#374151" font-weight="600">Srem</text><text x="704.0" y="188" text-anchor="end" font-size="11" fill="#374151" font-weight="600">Galabovo</text><text x="704" y="198" text-anchor="end" font-size="10" fill="#9ca3af">km</text><text x="6" y="24" text-anchor="start" font-size="10" fill="#9ca3af">m</text>
</svg>