<svg xmlns="http://www.w3.org/2000/svg" viewBox="0 0 720 200" role="img" aria-label="Elevation profile, Svilengrad to Srem">
  <rect x="0" y="0" width="720" height="200" fill="#ffffff"/>
  <line x1="44" y1="168.0" x2="704" y2="168.0" stroke="#e5e7eb" stroke-width="1"/><line x1="44" y1="142.3" x2="704" y2="142.3" stroke="#e5e7eb" stroke-width="1"/><line x1="44" y1="116.7" x2="704" y2="116.7" stroke="#e5e7eb" stroke-width="1"/><line x1="44" y1="91.0" x2="704" y2="91.0" stroke="#e5e7eb" stroke-width="1"/><line x1="44" y1="65.3" x2="704" y2="65.3" stroke="#e5e7eb" stroke-width="1"/><line x1="44" y1="39.7" x2="704" y2="39.7" stroke="#e5e7eb" stroke-width="1"/><line x1="44" y1="14.0" x2="704" y2="14.0" stroke="#e5e7eb" stroke-width="1"/>
  <path d="M 44.0,153.5 L 44.6,153.5 L 44.8,153.5 L 45.3,153.4 L 46.4,153.1 L 47.8,152.7 L 48.4,152.6 L 48.9,152.5 L 49.4,152.5 L 49.7,152.6 L 50.0,152.6 L 50.4,152.7 L 50.7,152.7 L 51.6,152.8 L 52.3,152.8 L 53.3,152.8 L 53.7,152.8 L 54.6,152.8 L 55.1,152.7 L 55.1,152.7 L 55.4,152.6 L 55.7,152.5 L 55.9,152.5 L 56.0,152.5 L 56.4,152.4 L 56.9,152.3 L 57.2,152.2 L 57.3,152.1 L 57.9,152.0 L 59.3,151.7 L 59.4,151.7 L 59.5,151.6 L 59.6,151.6 L 59.8,151.6 L 60.5,151.4 L 60.6,151.3 L 60.8,151.2 L 61.1,151.1 L 61.5,150.9 L 61.6,150.9 L 61.7,150.8 L 61.8,150.8 L 62.0,150.6 L 62.8,150.3 L 62.9,150.2 L 63.0,150.1 L 63.3,150.0 L 63.6,149.8 L 64.2,149.5 L 64.8,149.2 L 65.0,149.1 L 65.1,149.0 L 65.3,148.9 L 65.5,148.8 L 66.0,148.6 L 66.4,148.3 L 66.9,148.0 L 67.2,147.9 L 67.6,147.6 L 68.1,147.4 L 68.5,146.9 L 69.0,146.3 L 69.5,145.6 L 70.8,143.7 L 72.2,141.6 L 72.4,141.3 L 73.3,140.3 L 76.2,137.3 L 77.4,136.2 L 77.5,136.0 L 77.7,135.9 L 78.7,135.0 L 80.5,133.5 L 82.0,132.2 L 82.6,131.8 L 87.3,128.6 L 87.8,128.4 L 89.2,127.7 L 89.9,127.3 L 91.6,126.5 L 92.5,126.2 L 92.7,126.2 L 93.0,126.0 L 94.4,125.7 L 94.8,125.6 L 96.3,125.3 L 96.7,125.2 L 100.6,123.1 L 101.8,122.6 L 103.2,122.1 L 104.8,121.4 L 106.9,120.6 L 107.3,120.5 L 110.0,119.9 L 113.1,119.4 L 113.5,119.3 L 117.9,117.8 L 118.2,117.7 L 118.9,117.3 L 119.1,117.1 L 119.3,116.9 L 120.0,116.3 L 120.3,116.1 L 121.2,115.3 L 121.5,115.0 L 122.6,114.1 L 122.8,113.9 L 123.0,113.7 L 123.6,113.1 L 124.7,112.1 L 125.6,111.5 L 126.4,111.0 L 126.7,110.9 L 126.9,110.9 L 127.3,110.8 L 127.5,110.7 L 127.7,110.7 L 127.9,110.6 L 128.8,110.5 L 129.7,110.4 L 130.5,110.4 L 130.7,110.4 L 131.0,110.5 L 131.2,110.5 L 131.7,110.6 L 131.8,110.7 L 132.0,110.7 L 132.5,110.8 L 132.9,110.9 L 133.6,111.1 L 134.2,111.3 L 136.3,112.3 L 136.6,112.4 L 140.0,113.0 L 140.4,113.0 L 141.0,112.9 L 141.2,112.9 L 142.9,112.7 L 143.3,112.6 L 144.9,112.2 L 145.2,112.1 L 145.4,112.1 L 145.6,112.0 L 145.8,111.9 L 146.0,111.8 L 146.2,111.6 L 147.4,110.9 L 148.1,110.8 L 148.3,110.8 L 148.4,110.8 L 148.6,110.8 L 148.7,110.8 L 150.8,111.2 L 151.0,111.3 L 151.2,111.4 L 152.1,111.5 L 152.2,111.5 L 152.7,111.6 L 153.8,111.8 L 154.0,111.8 L 155.2,112.1 L 155.6,112.2 L 156.0,112.4 L 157.7,112.9 L 157.9,112.9 L 158.0,113.0 L 160.3,113.6 L 160.6,113.7 L 161.2,113.8 L 161.5,113.7 L 161.6,113.7 L 163.0,113.3 L 163.1,113.2 L 163.4,112.8 L 163.9,112.3 L 164.3,111.8 L 165.0,110.9 L 165.2,110.6 L 165.5,110.2 L 165.8,109.8 L 166.1,109.4 L 166.8,108.5 L 167.7,107.0 L 168.0,106.5 L 168.2,106.1 L 169.1,104.7 L 170.2,102.9 L 170.9,102.0 L 171.7,101.4 L 172.5,100.9 L 172.9,100.9 L 173.4,101.1 L 173.7,101.2 L 173.9,101.3 L 174.6,101.6 L 174.8,101.8 L 175.0,101.9 L 175.3,102.2 L 175.5,102.4 L 176.3,103.1 L 176.7,103.4 L 177.9,104.6 L 178.6,105.3 L 178.9,105.6 L 179.1,105.8 L 179.4,106.1 L 179.5,106.2 L 179.8,106.5 L 180.3,106.9 L 180.6,107.0 L 181.0,106.8 L 181.6,106.6 L 181.8,106.6 L 181.9,106.5 L 184.2,105.4 L 184.4,105.3 L 185.0,105.2 L 185.9,105.1 L 186.9,104.6 L 188.0,104.0 L 188.3,103.7 L 189.0,103.0 L 189.3,102.6 L 189.6,102.2 L 189.7,102.1 L 189.9,101.9 L 190.2,101.6 L 190.3,101.5 L 190.6,101.2 L 190.8,100.9 L 190.9,100.8 L 191.4,100.4 L 191.5,100.3 L 191.5,100.2 L 191.8,100.0 L 192.1,99.7 L 192.2,99.6 L 192.5,99.4 L 192.5,99.3 L 192.6,99.2 L 193.5,98.5 L 193.8,98.3 L 194.1,98.0 L 195.2,97.1 L 195.7,96.7 L 196.5,95.9 L 198.1,93.9 L 198.8,92.8 L 200.4,90.9 L 201.2,90.1 L 201.5,89.8 L 201.7,89.7 L 202.0,89.6 L 202.4,89.5 L 202.8,89.4 L 203.0,89.3 L 204.6,89.2 L 205.1,89.3 L 205.4,89.3 L 207.8,89.1 L 208.2,89.0 L 208.6,88.8 L 213.1,85.7 L 213.7,85.1 L 217.6,80.7 L 219.8,78.6 L 221.8,77.2 L 232.9,73.3 L 233.2,73.2 L 233.4,73.2 L 234.6,72.7 L 235.0,72.6 L 235.3,72.5 L 236.5,72.3 L 237.7,72.3 L 237.8,72.3 L 237.9,72.4 L 238.2,72.4 L 240.2,73.3 L 241.1,73.7 L 241.3,73.8 L 241.5,73.9 L 241.9,74.1 L 245.5,74.6 L 245.5,74.6 L 247.1,74.4 L 247.4,74.4 L 247.7,74.3 L 248.7,74.9 L 249.0,75.3 L 249.2,75.6 L 249.6,76.0 L 249.8,76.3 L 250.0,76.5 L 250.4,77.2 L 250.5,77.5 L 250.6,77.8 L 251.1,78.6 L 251.3,78.9 L 251.6,79.6 L 252.1,80.5 L 252.2,80.6 L 252.6,81.1 L 252.9,81.4 L 253.6,82.3 L 253.8,82.5 L 254.3,83.0 L 254.3,83.0 L 254.7,83.4 L 255.3,84.0 L 255.4,84.2 L 255.6,84.4 L 255.6,84.4 L 255.8,84.5 L 256.4,85.7 L 256.7,86.6 L 257.1,87.4 L 257.8,89.0 L 257.9,89.2 L 258.0,89.3 L 258.1,89.4 L 258.1,89.5 L 258.2,89.6 L 258.7,90.3 L 258.8,90.5 L 259.3,91.3 L 260.1,92.1 L 260.2,92.1 L 260.4,92.2 L 260.5,92.3 L 260.7,92.4 L 261.0,92.5 L 261.1,92.5 L 261.3,92.6 L 261.4,92.6 L 261.5,92.7 L 262.1,92.6 L 262.2,92.5 L 262.2,92.5 L 262.6,92.2 L 262.8,92.1 L 263.0,92.0 L 263.1,92.0 L 263.2,91.9 L 263.3,91.9 L 263.4,91.8 L 263.5,91.8 L 263.7,91.5 L 264.0,91.1 L 264.2,90.7 L 264.4,90.5 L 264.5,90.4 L 264.7,90.0 L 264.9,89.7 L 265.1,89.4 L 265.2,89.3 L 265.3,89.0 L 265.6,88.6 L 265.8,88.2 L 266.2,87.6 L 267.4,85.4 L 268.1,84.2 L 268.6,83.5 L 269.1,82.7 L 270.6,80.2 L 271.3,79.1 L 272.1,77.9 L 272.4,77.5 L 272.8,77.0 L 273.1,76.5 L 273.9,75.3 L 275.1,73.7 L 276.1,72.2 L 277.4,70.6 L 277.8,70.2 L 278.2,69.8 L 284.6,63.2 L 285.3,62.2 L 285.8,61.6 L 285.8,61.5 L 286.0,61.2 L 286.6,60.4 L 287.3,59.1 L 287.5,58.9 L 287.9,58.0 L 288.4,57.1 L 289.0,55.9 L 289.9,54.1 L 290.5,52.8 L 290.6,52.5 L 291.5,51.2 L 291.6,51.1 L 292.2,50.3 L 292.6,49.8 L 292.8,49.5 L 295.1,47.9 L 295.4,47.8 L 296.5,47.2 L 297.0,46.9 L 297.4,46.8 L 298.5,46.3 L 300.7,45.9 L 301.6,45.3 L 301.8,45.2 L 302.3,45.0 L 302.5,44.7 L 304.8,42.4 L 305.1,42.3 L 306.0,42.1 L 306.2,42.0 L 308.1,43.7 L 308.4,44.0 L 308.9,44.6 L 309.0,44.7 L 309.1,44.8 L 309.3,45.0 L 310.2,46.2 L 310.8,46.9 L 311.0,47.2 L 311.8,48.2 L 312.6,49.1 L 312.7,49.3 L 312.9,49.5 L 313.1,49.7 L 313.7,50.4 L 314.0,50.6 L 314.2,50.5 L 314.6,50.2 L 314.7,50.1 L 315.2,49.7 L 315.8,49.2 L 316.0,48.8 L 316.2,48.6 L 316.3,48.3 L 317.1,46.6 L 318.1,44.8 L 318.3,44.6 L 318.8,43.9 L 319.2,43.4 L 319.8,42.8 L 320.0,43.0 L 320.2,43.1 L 320.7,43.4 L 321.1,43.7 L 321.6,44.0 L 321.8,44.2 L 322.0,44.4 L 322.3,44.7 L 322.5,44.9 L 322.5,44.9 L 322.6,45.0 L 322.8,45.2 L 322.9,45.3 L 323.0,45.4 L 323.0,45.4 L 323.1,45.5 L 323.3,45.7 L 323.5,45.9 L 324.0,46.4 L 324.3,46.8 L 324.6,47.2 L 324.9,47.5 L 325.1,47.7 L 325.4,48.0 L 325.5,48.2 L 325.8,48.6 L 326.7,50.1 L 327.1,50.9 L 327.4,51.4 L 327.8,51.7 L 328.1,51.8 L 328.4,52.0 L 328.5,52.0 L 328.9,52.2 L 329.1,52.4 L 329.5,52.5 L 329.8,52.3 L 330.2,52.0 L 330.4,51.9 L 330.5,51.8 L 330.5,51.8 L 330.9,51.5 L 331.0,51.5 L 331.2,51.3 L 331.5,51.1 L 331.6,51.0 L 331.9,50.6 L 332.6,49.8 L 333.2,49.2 L 333.3,49.1 L 333.9,47.9 L 334.6,46.6 L 334.7,46.4 L 335.3,45.3 L 336.1,44.2 L 336.9,43.2 L 337.9,42.1 L 338.0,41.9 L 338.3,41.6 L 338.5,41.4 L 338.7,41.2 L 339.0,40.9 L 339.3,40.7 L 339.4,40.6 L 339.8,40.3 L 339.9,40.2 L 340.0,40.1 L 340.2,40.0 L 340.4,39.8 L 340.5,39.7 L 340.7,39.6 L 340.8,39.6 L 340.8,39.5 L 340.9,39.5 L 341.0,39.4 L 341.6,40.2 L 341.7,40.5 L 341.8,40.7 L 342.0,40.9 L 342.1,41.1 L 342.5,41.8 L 343.2,43.2 L 343.5,43.8 L 343.7,44.2 L 344.0,45.0 L 344.2,45.4 L 344.3,45.7 L 344.4,46.0 L 345.0,47.4 L 345.2,47.9 L 345.4,48.4 L 346.1,50.1 L 346.3,50.7 L 347.4,53.7 L 347.8,54.8 L 348.0,55.2 L 348.2,55.7 L 348.4,56.1 L 348.5,56.5 L 348.7,57.1 L 349.5,58.5 L 349.6,58.7 L 349.9,59.3 L 350.3,60.1 L 350.5,60.4 L 351.6,61.8 L 351.8,62.1 L 352.2,62.6 L 352.3,62.6 L 352.5,62.9 L 352.6,63.0 L 352.7,63.1 L 352.8,63.1 L 353.1,63.1 L 353.9,63.3 L 354.2,63.4 L 354.4,63.4 L 354.5,63.4 L 354.7,63.5 L 355.0,63.7 L 355.2,63.8 L 356.7,64.6 L 356.8,64.7 L 357.1,64.7 L 357.3,64.8 L 357.7,64.9 L 357.9,65.0 L 358.1,65.0 L 358.2,65.1 L 358.5,65.1 L 359.0,64.8 L 359.1,64.6 L 359.3,64.5 L 359.4,64.4 L 359.5,64.3 L 359.8,64.1 L 360.7,63.4 L 360.8,63.3 L 360.9,63.2 L 361.0,63.2 L 361.1,63.1 L 361.6,62.6 L 362.1,62.2 L 362.6,62.1 L 362.7,62.2 L 362.9,62.2 L 364.3,62.8 L 364.5,63.0 L 365.0,63.4 L 365.3,63.7 L 365.5,63.9 L 365.7,64.1 L 366.0,64.3 L 366.7,65.0 L 366.8,65.2 L 367.0,65.3 L 368.1,66.5 L 368.4,66.9 L 368.5,67.1 L 370.6,69.8 L 374.1,74.5 L 374.3,74.6 L 374.6,74.9 L 375.8,76.2 L 376.3,76.8 L 378.2,79.1 L 381.5,82.6 L 382.6,83.8 L 384.6,86.0 L 384.9,86.4 L 385.1,86.6 L 387.5,89.2 L 389.0,90.0 L 392.8,91.4 L 393.1,91.5 L 393.4,91.7 L 394.2,92.3 L 395.7,93.4 L 395.9,93.5 L 396.0,93.6 L 396.4,93.9 L 397.4,94.7 L 397.8,95.0 L 398.0,95.1 L 398.2,95.3 L 398.4,95.4 L 400.0,96.1 L 401.1,96.3 L 402.3,95.8 L 402.5,95.7 L 402.6,95.7 L 402.8,95.6 L 403.6,95.4 L 404.0,95.3 L 405.4,95.3 L 405.6,95.4 L 405.8,95.5 L 407.5,96.2 L 407.7,96.3 L 408.6,96.7 L 408.9,96.7 L 409.5,96.8 L 409.8,96.8 L 410.0,96.8 L 410.8,96.8 L 411.8,97.4 L 412.1,97.6 L 412.6,97.9 L 412.8,98.1 L 412.9,98.2 L 413.1,98.4 L 414.3,99.7 L 414.5,99.9 L 414.7,99.9 L 415.9,99.7 L 417.3,99.6 L 418.4,99.7 L 419.2,100.2 L 419.5,100.4 L 419.8,100.7 L 420.5,101.1 L 420.6,101.1 L 420.8,101.1 L 421.4,101.1 L 423.4,100.9 L 423.8,100.9 L 424.1,100.9 L 426.0,101.2 L 426.3,101.3 L 426.5,101.5 L 427.5,102.2 L 429.1,103.7 L 429.4,104.0 L 432.9,106.8 L 434.7,108.3 L 434.9,108.4 L 435.7,109.0 L 435.9,109.2 L 436.3,109.5 L 436.8,109.9 L 437.4,110.2 L 437.7,110.5 L 439.0,111.6 L 440.2,112.8 L 440.7,113.4 L 441.1,113.9 L 441.9,115.0 L 442.9,117.2 L 443.6,118.8 L 444.1,120.1 L 444.2,120.5 L 444.6,121.7 L 444.9,122.3 L 445.1,122.9 L 445.5,124.1 L 445.7,124.5 L 446.2,125.7 L 446.6,126.7 L 446.9,127.6 L 447.1,128.0 L 447.4,128.7 L 447.7,129.0 L 447.8,129.1 L 448.2,129.3 L 449.6,130.1 L 450.5,130.4 L 451.6,130.8 L 451.8,130.9 L 452.0,131.0 L 453.0,131.5 L 453.1,131.5 L 453.3,131.6 L 453.5,131.7 L 453.8,131.8 L 454.4,132.1 L 454.6,132.2 L 454.9,132.3 L 455.0,132.4 L 455.2,132.5 L 455.9,133.1 L 456.1,133.3 L 456.5,133.7 L 456.9,134.1 L 457.0,134.2 L 458.4,135.8 L 458.7,136.2 L 459.2,136.6 L 459.5,136.7 L 459.5,136.7 L 459.7,136.8 L 460.3,136.9 L 460.7,137.0 L 461.0,137.1 L 461.3,137.2 L 461.7,137.4 L 462.6,137.8 L 462.8,137.9 L 463.1,138.1 L 463.4,138.6 L 463.6,139.1 L 463.7,139.2 L 464.2,140.1 L 464.8,141.1 L 465.6,142.0 L 466.6,143.2 L 467.6,143.5 L 469.1,143.5 L 469.3,143.4 L 469.8,143.2 L 470.3,143.0 L 471.1,142.7 L 471.2,142.7 L 471.7,142.6 L 472.1,142.5 L 472.5,142.3 L 473.8,142.8 L 474.5,143.1 L 474.6,143.1 L 474.7,143.2 L 474.9,143.4 L 475.3,143.7 L 475.4,143.8 L 476.0,144.3 L 477.0,145.0 L 477.2,145.1 L 479.1,145.8 L 479.6,145.9 L 479.7,145.9 L 479.8,145.9 L 480.6,145.6 L 481.4,144.6 L 482.5,143.4 L 483.1,142.8 L 485.5,141.4 L 485.6,141.3 L 486.9,141.5 L 487.2,141.6 L 491.3,143.6 L 491.6,143.7 L 491.8,143.8 L 492.0,143.9 L 492.1,143.9 L 494.4,143.2 L 496.3,142.9 L 498.0,142.9 L 500.3,143.2 L 501.8,143.6 L 503.0,144.4 L 503.3,144.6 L 504.4,145.5 L 504.7,145.7 L 504.9,145.9 L 505.1,146.1 L 505.4,146.2 L 505.8,146.5 L 506.2,146.6 L 506.2,146.7 L 508.5,147.2 L 508.9,147.2 L 509.7,147.0 L 510.6,146.4 L 511.2,146.1 L 511.4,146.0 L 511.6,145.9 L 512.4,145.4 L 514.6,145.1 L 514.8,145.1 L 515.2,145.1 L 516.0,145.4 L 516.7,145.7 L 518.7,146.3 L 520.5,146.4 L 520.6,146.4 L 521.0,146.4 L 521.4,146.4 L 521.9,146.4 L 522.1,146.5 L 522.3,146.5 L 524.8,146.3 L 525.3,146.2 L 525.4,146.1 L 525.6,146.1 L 526.2,146.0 L 526.9,145.9 L 527.7,146.0 L 528.6,146.1 L 528.8,146.2 L 529.2,146.3 L 530.9,146.7 L 531.0,146.7 L 531.9,146.6 L 532.9,146.6 L 533.5,146.6 L 535.3,146.5 L 536.1,146.4 L 536.5,146.4 L 537.3,146.5 L 537.6,146.5 L 538.2,146.5 L 539.6,146.6 L 540.0,146.6 L 540.4,146.6 L 541.0,146.6 L 541.4,146.5 L 541.9,146.5 L 543.0,146.4 L 545.4,146.2 L 546.0,146.2 L 546.2,146.2 L 547.3,146.1 L 547.8,146.0 L 549.7,145.8 L 550.1,145.7 L 550.2,145.5 L 550.6,145.1 L 550.6,145.0 L 550.8,144.9 L 551.3,144.3 L 551.6,143.9 L 552.1,143.5 L 552.4,143.5 L 552.9,143.5 L 552.9,168.0 L 44.0,168.0 Z" fill="#dc2626" fill-opacity="0.15"/>
  <path d="M 44.0,153.5 L 44.6,153.5 L 44.8,153.5 L 45.3,153.4 L 46.4,153.1 L 47.8,152.7 L 48.4,152.6 L 48.9,152.5 L 49.4,152.5 L 49.7,152.6 L 50.0,152.6 L 50.4,152.7 L 50.7,152.7 L 51.6,152.8 L 52.3,152.8 L 53.3,152.8 L 53.7,152.8 L 54.6,152.8 L 55.1,152.7 L 55.1,152.7 L 55.4,152.6 L 55.7,152.5 L 55.9,152.5 L 56.0,152.5 L 56.4,152.4 L 56.9,152.3 L 57.2,152.2 L 57.3,152.1 L 57.9,152.0 L 59.3,151.7 L 59.4,151.7 L 59.5,151.6 L 59.6,151.6 L 59.8,151.6 L 60.5,151.4 L 60.6,151.3 L 60.8,151.2 L 61.1,151.1 L 61.5,150.9 L 61.6,150.9 L 61.7,150.8 L 61.8,150.8 L 62.0,150.6 L 62.8,150.3 L 62.9,150.2 L 63.0,150.1 L 63.3,150.0 L 63.6,149.8 L 64.2,149.5 L 64.8,149.2 L 65.0,149.1 L 65.1,149.0 L 65.3,148.9 L 65.5,148.8 L 66.0,148.6 L 66.4,148.3 L 66.9,148.0 L 67.2,147.9 L 67.6,147.6 L 68.1,147.4 L 68.5,146.9 L 69.0,146.3 L 69.5,145.6 L 70.8,143.7 L 72.2,141.6 L 72.4,141.3 L 73.3,140.3 L 76.2,137.3 L 77.4,136.2 L 77.5,136.0 L 77.7,135.9 L 78.7,135.0 L 80.5,133.5 L 82.0,132.2 L 82.6,131.8 L 87.3,128.6 L 87.8,128.4 L 89.2,127.7 L 89.9,127.3 L 91.6,126.5 L 92.5,126.2 L 92.7,126.2 L 93.0,126.0 L 94.4,125.7 L 94.8,125.6 L 96.3,125.3 L 96.7,125.2 L 100.6,123.1 L 101.8,122.6 L 103.2,122.1 L 104.8,121.4 L 106.9,120.6 L 107.3,120.5 L 110.0,119.9 L 113.1,119.4 L 113.5,119.3 L 117.9,117.8 L 118.2,117.7 L 118.9,117.3 L 119.1,117.1 L 119.3,116.9 L 120.0,116.3 L 120.3,116.1 L 121.2,115.3 L 121.5,115.0 L 122.6,114.1 L 122.8,113.9 L 123.0,113.7 L 123.6,113.1 L 124.7,112.1 L 125.6,111.5 L 126.4,111.0 L 126.7,110.9 L 126.9,110.9 L 127.3,110.8 L 127.5,110.7 L 127.7,110.7 L 127.9,110.6 L 128.8,110.5 L 129.7,110.4 L 130.5,110.4 L 130.7,110.4 L 131.0,110.5 L 131.2,110.5 L 131.7,110.6 L 131.8,110.7 L 132.0,110.7 L 132.5,110.8 L 132.9,110.9 L 133.6,111.1 L 134.2,111.3 L 136.3,112.3 L 136.6,112.4 L 140.0,113.0 L 140.4,113.0 L 141.0,112.9 L 141.2,112.9 L 142.9,112.7 L 143.3,112.6 L 144.9,112.2 L 145.2,112.1 L 145.4,112.1 L 145.6,112.0 L 145.8,111.9 L 146.0,111.8 L 146.2,111.6 L 147.4,110.9 L 148.1,110.8 L 148.3,110.8 L 148.4,110.8 L 148.6,110.8 L 148.7,110.8 L 150.8,111.2 L 151.0,111.3 L 151.2,111.4 L 152.1,111.5 L 152.2,111.5 L 152.7,111.6 L 153.8,111.8 L 154.0,111.8 L 155.2,112.1 L 155.6,112.2 L 156.0,112.4 L 157.7,112.9 L 157.9,112.9 L 158.0,113.0 L 160.3,113.6 L 160.6,113.7 L 161.2,113.8 L 161.5,113.7 L 161.6,113.7 L 163.0,113.3 L 163.1,113.2 L 163.4,112.8 L 163.9,112.3 L 164.3,111.8 L 165.0,110.9 L 165.2,110.6 L 165.5,110.2 L 165.8,109.8 L 166.1,109.4 L 166.8,108.5 L 167.7,107.0 L 168.0,106.5 L 168.2,106.1 L 169.1,104.7 L 170.2,102.9 L 170.9,102.0 L 171.7,101.4 L 172.5,100.9 L 172.9,100.9 L 173.4,101.1 L 173.7,101.2 L 173.9,101.3 L 174.6,101.6 L 174.8,101.8 L 175.0,101.9 L 175.3,102.2 L 175.5,102.4 L 176.3,103.1 L 176.7,103.4 L 177.9,104.6 L 178.6,105.3 L 178.9,105.6 L 179.1,105.8 L 179.4,106.1 L 179.5,106.2 L 179.8,106.5 L 180.3,106.9 L 180.6,107.0 L 181.0,106.8 L 181.6,106.6 L 181.8,106.6 L 181.9,106.5 L 184.2,105.4 L 184.4,105.3 L 185.0,105.2 L 185.9,105.1 L 186.9,104.6 L 188.0,104.0 L 188.3,103.7 L 189.0,103.0 L 189.3,102.6 L 189.6,102.2 L 189.7,102.1 L 189.9,101.9 L 190.2,101.6 L 190.3,101.5 L 190.6,101.2 L 190.8,100.9 L 190.9,100.8 L 191.4,100.4 L 191.5,100.3 L 191.5,100.2 L 191.8,100.0 L 192.1,99.7 L 192.2,99.6 L 192.5,99.4 L 192.5,99.3 L 192.6,99.2 L 193.5,98.5 L 193.8,98.3 L 194.1,98.0 L 195.2,97.1 L 195.7,96.7 L 196.5,95.9 L 198.1,93.9 L 198.8,92.8 L 200.4,90.9 L 201.2,90.1 L 201.5,89.8 L 201.7,89.7 L 202.0,89.6 L 202.4,89.5 L 202.8,89.4 L 203.0,89.3 L 204.6,89.2 L 205.1,89.3 L 205.4,89.3 L 207.8,89.1 L 208.2,89.0 L 208.6,88.8 L 213.1,85.7 L 213.7,85.1 L 217.6,80.7 L 219.8,78.6 L 221.8,77.2 L 232.9,73.3 L 233.2,73.2 L 233.4,73.2 L 234.6,72.7 L 235.0,72.6 L 235.3,72.5 L 236.5,72.3 L 237.7,72.3 L 237.8,72.3 L 237.9,72.4 L 238.2,72.4 L 240.2,73.3 L 241.1,73.7 L 241.3,73.8 L 241.5,73.9 L 241.9,74.1 L 245.5,74.6 L 245.5,74.6 L 247.1,74.4 L 247.4,74.4 L 247.7,74.3 L 248.7,74.9 L 249.0,75.3 L 249.2,75.6 L 249.6,76.0 L 249.8,76.3 L 250.0,76.5 L 250.4,77.2 L 250.5,77.5 L 250.6,77.8 L 251.1,78.6 L 251.3,78.9 L 251.6,79.6 L 252.1,80.5 L 252.2,80.6 L 252.6,81.1 L 252.9,81.4 L 253.6,82.3 L 253.8,82.5 L 254.3,83.0 L 254.3,83.0 L 254.7,83.4 L 255.3,84.0 L 255.4,84.2 L 255.6,84.4 L 255.6,84.4 L 255.8,84.5 L 256.4,85.7 L 256.7,86.6 L 257.1,87.4 L 257.8,89.0 L 257.9,89.2 L 258.0,89.3 L 258.1,89.4 L 258.1,89.5 L 258.2,89.6 L 258.7,90.3 L 258.8,90.5 L 259.3,91.3 L 260.1,92.1 L 260.2,92.1 L 260.4,92.2 L 260.5,92.3 L 260.7,92.4 L 261.0,92.5 L 261.1,92.5 L 261.3,92.6 L 261.4,92.6 L 261.5,92.7 L 262.1,92.6 L 262.2,92.5 L 262.2,92.5 L 262.6,92.2 L 262.8,92.1 L 263.0,92.0 L 263.1,92.0 L 263.2,91.9 L 263.3,91.9 L 263.4,91.8 L 263.5,91.8 L 263.7,91.5 L 264.0,91.1 L 264.2,90.7 L 264.4,90.5 L 264.5,90.4 L 264.7,90.0 L 264.9,89.7 L 265.1,89.4 L 265.2,89.3 L 265.3,89.0 L 265.6,88.6 L 265.8,88.2 L 266.2,87.6 L 267.4,85.4 L 268.1,84.2 L 268.6,83.5 L 269.1,82.7 L 270.6,80.2 L 271.3,79.1 L 272.1,77.9 L 272.4,77.5 L 272.8,77.0 L 273.1,76.5 L 273.9,75.3 L 275.1,73.7 L 276.1,72.2 L 277.4,70.6 L 277.8,70.2 L 278.2,69.8 L 284.6,63.2 L 285.3,62.2 L 285.8,61.6 L 285.8,61.5 L 286.0,61.2 L 286.6,60.4 L 287.3,59.1 L 287.5,58.9 L 287.9,58.0 L 288.4,57.1 L 289.0,55.9 L 289.9,54.1 L 290.5,52.8 L 290.6,52.5 L 291.5,51.2 L 291.6,51.1 L 292.2,50.3 L 292.6,49.8 L 292.8,49.5 L 295.1,47.9 L 295.4,47.8 L 296.5,47.2 L 297.0,46.9 L 297.4,46.8 L 298.5,46.3 L 300.7,45.9 L 301.6,45.3 L 301.8,45.2 L 302.3,45.0 L 302.5,44.7 L 304.8,42.4 L 305.1,42.3 L 306.0,42.1 L 306.2,42.0 L 308.1,43.7 L 308.4,44.0 L 308.9,44.6 L 309.0,44.7 L 309.1,44.8 L 309.3,45.0 L 310.2,46.2 L 310.8,46.9 L 311.0,47.2 L 311.8,48.2 L 312.6,49.1 L 312.7,49.3 L 312.9,49.5 L 313.1,49.7 L 313.7,50.4 L 314.0,50.6 L 314.2,50.5 L 314.6,50.2 L 314.7,50.1 L 315.2,49.7 L 315.8,49.2 L 316.0,48.8 L 316.2,48.6 L 316.3,48.3 L 317.1,46.6 L 318.1,44.8 L 318.3,44.6 L 318.8,43.9 L 319.2,43.4 L 319.8,42.8 L 320.0,43.0 L 320.2,43.1 L 320.7,43.4 L 321.1,43.7 L 321.6,44.0 L 321.8,44.2 L 322.0,44.4 L 322.3,44.7 L 322.5,44.9 L 322.5,44.9 L 322.6,45.0 L 322.8,45.2 L 322.9,45.3 L 323.0,45.4 L 323.0,45.4 L 323.1,45.5 L 323.3,45.7 L 323.5,45.9 L 324.0,46.4 L 324.3,46.8 L 324.6,47.2 L 324.9,47.5 L 325.1,47.7 L 325.4,48.0 L 325.5,48.2 L 325.8,48.6 L 326.7,50.1 L 327.1,50.9 L 327.4,51.4 L 327.8,51.7 L 328.1,51.8 L 328.4,52.0 L 328.5,52.0 L 328.9,52.2 L 329.1,52.4 L 329.5,52.5 L 329.8,52.3 L 330.2,52.0 L 330.4,51.9 L 330.5,51.8 L 330.5,51.8 L 330.9,51.5 L 331.0,51.5 L 331.2,51.3 L 331.5,51.1 L 331.6,51.0 L 331.9,50.6 L 332.6,49.8 L 333.2,49.2 L 333.3,49.1 L 333.9,47.9 L 334.6,46.6 L 334.7,46.4 L 335.3,45.3 L 336.1,44.2 L 336.9,43.2 L 337.9,42.1 L 338.0,41.9 L 338.3,41.6 L 338.5,41.4 L 338.7,41.2 L 339.0,40.9 L 339.3,40.7 L 339.4,40.6 L 339.8,40.3 L 339.9,40.2 L 340.0,40.1 L 340.2,40.0 L 340.4,39.8 L 340.5,39.7 L 340.7,39.6 L 340.8,39.6 L 340.8,39.5 L 340.9,39.5 L 341.0,39.4 L 341.6,40.2 L 341.7,40.5 L 341.8,40.7 L 342.0,40.9 L 342.1,41.1 L 342.5,41.8 L 343.2,43.2 L 343.5,43.8 L 343.7,44.2 L 344.0,45.0 L 344.2,45.4 L 344.3,45.7 L 344.4,46.0 L 345.0,47.4 L 345.2,47.9 L 345.4,48.4 L 346.1,50.1 L 346.3,50.7 L 347.4,53.7 L 347.8,54.8 L 348.0,55.2 L 348.2,55.7 L 348.4,56.1 L 348.5,56.5 L 348.7,57.1 L 349.5,58.5 L 349.6,58.7 L 349.9,59.3 L 350.3,60.1 L 350.5,60.4 L 351.6,61.8 L 351.8,62.1 L 352.2,62.6 L 352.3,62.6 L 352.5,62.9 L 352.6,63.0 L 352.7,63.1 L 352.8,63.1 L 353.1,63.1 L 353.9,63.3 L 354.2,63.4 L 354.4,63.4 L 354.5,63.4 L 354.7,63.5 L 355.0,63.7 L 355.2,63.8 L 356.7,64.6 L 356.8,64.7 L 357.1,64.7 L 357.3,64.8 L 357.7,64.9 L 357.9,65.0 L 358.1,65.0 L 358.2,65.1 L 358.5,65.1 L 359.0,64.8 L 359.1,64.6 L 359.3,64.5 L 359.4,64.4 L 359.5,64.3 L 359.8,64.1 L 360.7,63.4 L 360.8,63.3 L 360.9,63.2 L 361.0,63.2 L 361.1,63.1 L 361.6,62.6 L 362.1,62.2 L 362.6,62.1 L 362.7,62.2 L 362.9,62.2 L 364.3,62.8 L 364.5,63.0 L 365.0,63.4 L 365.3,63.7 L 365.5,63.9 L 365.7,64.1 L 366.0,64.3 L 366.7,65.0 L 366.8,65.2 L 367.0,65.3 L 368.1,66.5 L 368.4,66.9 L 368.5,67.1 L 370.6,69.8 L 374.1,74.5 L 374.3,74.6 L 374.6,74.9 L 375.8,76.2 L 376.3,76.8 L 378.2,79.1 L 381.5,82.6 L 382.6,83.8 L 384.6,86.0 L 384.9,86.4 L 385.1,86.6 L 387.5,89.2 L 389.0,90.0 L 392.8,91.4 L 393.1,91.5 L 393.4,91.7 L 394.2,92.3 L 395.7,93.4 L 395.9,93.5 L 396.0,93.6 L 396.4,93.9 L 397.4,94.7 L 397.8,95.0 L 398.0,95.1 L 398.2,95.3 L 398.4,95.4 L 400.0,96.1 L 401.1,96.3 L 402.3,95.8 L 402.5,95.7 L 402.6,95.7 L 402.8,95.6 L 403.6,95.4 L 404.0,95.3 L 405.4,95.3 L 405.6,95.4 L 405.8,95.5 L 407.5,96.2 L 407.7,96.3 L 408.6,96.7 L 408.9,96.7 L 409.5,96.8 L 409.8,96.8 L 410.0,96.8 L 410.8,96.8 L 411.8,97.4 L 412.1,97.6 L 412.6,97.9 L 412.8,98.1 L 412.9,98.2 L 413.1,98.4 L 414.3,99.7 L 414.5,99.9 L 414.7,99.9 L 415.9,99.7 L 417.3,99.6 L 418.4,99.7 L 419.2,100.2 L 419.5,100.4 L 419.8,100.7 L 420.5,101.1 L 420.6,101.1 L 420.8,101.1 L 421.4,101.1 L 423.4,100.9 L 423.8,100.9 L 424.1,100.9 L 426.0,101.2 L 426.3,101.3 L 426.5,101.5 L 427.5,102.2 L 429.1,103.7 L 429.4,104.0 L 432.9,106.8 L 434.7,108.3 L 434.9,108.4 L 435.7,109.0 L 435.9,109.2 L 436.3,109.5 L 436.8,109.9 L 437.4,110.2 L 437.7,110.5 L 439.0,111.6 L 440.2,112.8 L 440.7,113.4 L 441.1,113.9 L 441.9,115.0 L 442.9,117.2 L 443.6,118.8 L 444.1,120.1 L 444.2,120.5 L 444.6,121.7 L 444.9,122.3 L 445.1,122.9 L 445.5,124.1 L 445.7,124.5 L 446.2,125.7 L 446.6,126.7 L 446.9,127.6 L 447.1,128.0 L 447.4,128.7 L 447.7,129.0 L 447.8,129.1 L 448.2,129.3 L 449.6,130.1 L 450.5,130.4 L 451.6,130.8 L 451.8,130.9 L 452.0,131.0 L 453.0,131.5 L 453.1,131.5 L 453.3,131.6 L 453.5,131.7 L 453.8,131.8 L 454.4,132.1 L 454.6,132.2 L 454.9,132.3 L 455.0,132.4 L 455.2,132.5 L 455.9,133.1 L 456.1,133.3 L 456.5,133.7 L 456.9,134.1 L 457.0,134.2 L 458.4,135.8 L 458.7,136.2 L 459.2,136.6 L 459.5,136.7 L 459.5,136.7 L 459.7,136.8 L 460.3,136.9 L 460.7,137.0 L 461.0,137.1 L 461.3,137.2 L 461.7,137.4 L 462.6,137.8 L 462.8,137.9 L 463.1,138.1 L 463.4,138.6 L 463.6,139.1 L 463.7,139.2 L 464.2,140.1 L 464.8,141.1 L 465.6,142.0 L 466.6,143.2 L 467.6,143.5 L 469.1,143.5 L 469.3,143.4 L 469.8,143.2 L 470.3,143.0 L 471.1,142.7 L 471.2,142.7 L 471.7,142.6 L 472.1,142.5 L 472.5,142.3 L 473.8,142.8 L 474.5,143.1 L 474.6,143.1 L 474.7,143.2 L 474.9,143.4 L 475.3,143.7 L 475.4,143.8 L 476.0,144.3 L 477.0,145.0 L 477.2,145.1 L 479.1,145.8 L 479.6,145.9 L 479.7,145.9 L 479.8,145.9 L 480.6,145.6 L 481.4,144.6 L 482.5,143.4 L 483.1,142.8 L 485.5,141.4 L 485.6,141.3 L 486.9,141.5 L 487.2,141.6 L 491.3,143.6 L 491.6,143.7 L 491.8,143.8 L 492.0,143.9 L 492.1,143.9 L 494.4,143.2 L 496.3,142.9 L 498.0,142.9 L 500.3,143.2 L 501.8,143.6 L 503.0,144.4 L 503.3,144.6 L 504.4,145.5 L 504.7,145.7 L 504.9,145.9 L 505.1,146.1 L 505.4,146.2 L 505.8,146.5 L 506.2,146.6 L 506.2,146.7 L 508.5,147.2 L 508.9,147.2 L 509.7,147.0 L 510.6,146.4 L 511.2,146.1 L 511.4,146.0 L 511.6,145.9 L 512.4,145.4 L 514.6,145.1 L 514.8,145.1 L 515.2,145.1 L 516.0,145.4 L 516.7,145.7 L 518.7,146.3 L 520.5,146.4 L 520.6,146.4 L 521.0,146.4 L 521.4,146.4 L 521.9,146.4 L 522.1,146.5 L 522.3,146.5 L 524.8,146.3 L 525.3,146.2 L 525.4,146.1 L 525.6,146.1 L 526.2,146.0 L 526.9,145.9 L 527.7,146.0 L 528.6,146.1 L 528.8,146.2 L 529.2,146.3 L 530.9,146.7 L 531.0,146.7 L 531.9,146.6 L 532.9,146.6 L 533.5,146.6 L 535.3,146.5 L 536.1,146.4 L 536.5,146.4 L 537.3,146.5 L 537.6,146.5 L 538.2,146.5 L 539.6,146.6 L 540.0,146.6 L 540.4,146.6 L 541.0,146.6 L 541.4,146.5 L 541.9,146.5 L 543.0,146.4 L 545.4,146.2 L 546.0,146.2 L 546.2,146.2 L 547.3,146.1 L 547.8,146.0 L 549.7,145.8 L 550.1,145.7 L 550.2,145.5 L 550.6,145.1 L 550.6,145.0 L 550.8,144.9 L 551.3,144.3 L 551.6,143.9 L 552.1,143.5 L 552.4,143.5 L 552.9,143.5" fill="none" stroke="#dc2626" stroke-width="2"/>
  <line x1="44" y1="168" x2="704" y2="168" stroke="#9ca3af" stroke-width="1"/>
  <text x="38" y="172.0" text-anchor="end" font-size="11" fill="#6b7280">0</text><text x="38" y="146.3" text-anchor="end" font-size="11" fill="#6b7280">100</text><text x="38" y="120.7" text-anchor="end" font-size="11" fill="#6b7280">200</text><text x="38" y="95.0" text-anchor="end" font-size="11" fill="#6b7280">300</text><text x="38" y="69.3" text-anchor="end" font-size="11" fill="#6b7280">400</text><text x="38" y="43.7" text-anchor="end" font-size="11" fill="#6b7280">500</text><text x="38" y="18.0" text-anchor="end" font-size="11" fill="#6b7280">600</text>
  <text x="140.8" y="188" text-anchor="middle" font-size="11" fill="#6b7280">10</text><text x="237.5" y="188" text-anchor="middle" font-size="11" fill="#6b7280">20</text><text x="334.3" y="188" text-anchor="middle" font-size="11" fill="#6b7280">30</text><text x="431.0" y="188" text-anchor="middle" font-size="11" fill="#6b7280">40</text>
  <text x="44" y="188" text-anchor="start" font-size="11" fill="#374151" font-weight="600">Svilengrad</text><text x="552.9" y="188" text-anchor="end" font-size="11" fill="#374151" font-weight="600">Srem</text><text x="704" y="198" text-anchor="end" font-size="10" fill="#9ca3af">km</text><text x="6" y="24" text-anchor="start" font-size="10" fill="#9ca3af">m</text>
</svg>